<?xml version="1.0" encoding="UTF-8" standalone="no"?>
<svg version="1.1" width="600" height="600" 
	xmlns="http://www.w3.org/2000/svg" 
	xmlns:xlink="http://www.w3.org/1999/xlink">

<circle fill="#0d215c" cx="300" cy="300" r="300"/>


<!--scales/terezy-->
<g id="scales_left_part" style="fill:#e9cb45;stroke:black;stroke-width:2px">
  <path style="fill:none;stroke:#e9cb45;stroke-width:6px" d="
	M 170,187 l -60,209 	M 170,187 l 60,209 	M 170,187 v 209"/>

  <path stroke-width="3" d="m 234,396 h -128 a 64,54,0,0,0,128,0 z"/>
  <rect x="103" y="391" width="134" height="10" rx="3" ry="3"/>

  <path d="m 300,163.5 
	c -19.5,1.2 -31.1,-4.7 -39.2,-11.8 c -31.2,-3.5 -57.9,17.6 -86.1,30.6 c 5,-10.8 -0.7,-19.5 -9.9,-19.7 
	c -19.2,0.3 -15.4,30.7 2.4,30.7 c 14.3,-0.3 27.8,-4.8 39.4,-9.4 c 34.7,-14 40.6,-5.8 56.2,-4.1 
	l 37.2,4.2 v -20.5 z"/>
</g>
<use xlink:href="#scales_left_part" transform="scale(-1,1) translate(-600,0)"/>


<!--hilt of the sword/efes mecha-->
<path fill="#ddd" d="m 289,29 l -6,96 h 34 l -6,-96 h -22 z"/>
<path style="fill:none;stroke:#999;stroke-width:1.5px" d="
	M 283.438,118 H 316.563 	M 283.875,111 H 316.125 
	M 284.313,104 H 315.688 	M 284.75,97 H 315.25 
	M 285.156,90.5 H 314.844 	M 285.563,84 H 314.438 
	M 285.969,77.5 H 314.031 	M 286.375,71 H 313.625 
	M 286.75,65 H 313.25 		M 287.125,59 H 312.875 
	M 287.5,53 H 312.5 		M 287.875,47 H 312.125 
	M 288.219,41.5 H 311.781 	M 288.563,36 H 311.438 
	M 288.875,31 H 311.125"/>
<path style="fill:none;stroke:black;stroke-width:2px" d="m 289,29 
	l -6,96 h 34 l -6,-96 h -22 z"/>


<!--sword/mech-->
<g style="fill:#c0c0c0;stroke:black;stroke-width:2px">
  <path d="m 271.5,29 c 2.8,-3.2 4.1,-6.6 5.2,-10.1 c 5.4,-6.6 13.8,-12.8 23.3,-12.9 
	c 9.5,0.1 17.9,6.3 23.3,12.9 c 1.1,3.5 2.4,6.9 5.2,10.1 z"/>
  <path fill="none" d="M 289.5,29 c -2.2,-7 -5.7,-11 -9.1,-14 
	M 311.5,29 c 2.2,-7 5.7,-11 9.1,-14"/>

  <path stroke-width="3px" d="m 326.3,132.2 
	l -8.4,421.8 c -0.3,15.06 -9,24 -17.9,33.5 
	c -8.9,-9.5 -17.6,-18.44 -17.9,-33.5 l -8.4,-421.8 z"/>
  <path style="fill:none;stroke-width:3.6px" d="
	M 292,132.2 v 401.8 	M 308,132.2 v 401.8"/>

  <rect x="270" y="29" width="60" height="14" rx="3" ry="3"/>
  <rect x="260" y="125" width="80" height="14" rx="3" ry="3"/>
</g>


<!--sword pattern/uzor na mechi-->
<ellipse id="b1" cx="300" cy="36" rx="1.1" ry="4"/>
<g id="b_left">
  <use xlink:href="#b1" transform="translate(-3.6,0)"/>
  <use xlink:href="#b1" transform="translate(-7.2,0)"/>
  <use xlink:href="#b1" transform="translate(-10.8,0)"/>
  <use xlink:href="#b1" transform="translate(-14.4,0)"/>
  <use xlink:href="#b1" transform="translate(-18,0)"/>
  <use xlink:href="#b1" transform="translate(-21.6,0)"/>
  <use xlink:href="#b1" transform="translate(-25.2,0)"/>
</g>
<use xlink:href="#b_left" transform="scale(-1,1) translate(-600,0)"/>

<ellipse id="a1" cx="300" cy="132" rx="1.1" ry="4"/>
<g id="a_left">
  <g id="a3">
    <use xlink:href="#a1" transform="translate(-4,0)"/>
    <use xlink:href="#a1" transform="translate(-8,0)"/>
    <use xlink:href="#a1" transform="translate(-12,0)"/>
  </g>
  <use xlink:href="#a3" transform="translate(-12,0)"/>
  <use xlink:href="#a3" transform="translate(-24,0)"/>
</g>
<use xlink:href="#a_left" transform="scale(-1,1) translate(-600,0)"/>


<!--trident/tryzub-->
<g transform="scale(0.44) translate(516.82,445.5)">
  <path style="fill:#546fa6;stroke:black;stroke-width:14px" d="M 5,5 
	V345 c 0,23 13.3,44.9 35.7,54.8 L 165,455 289.3,399.8 C 311.7,389.9 325,368 325,345 v-340 h-320 z"/>
  <path style="fill:#e9cb45;stroke:black;stroke-width:5px" d="m 165,30 
		c -9.3,10.6 -15,24.4 -15,39.6 c 0.6,33.4 4.6,66.7 5,100 c 0.7,31.1 -8.6,60.3 -19.9,88.8 
		c -3.8,7.9 -7.9,15.6 -12,23.3 l -12,-2.4 c -10.8,-2.2 -17.9,-12.7 -15.7,-23.5 
		c 1.9,-9.5 10.2,-16.1 19.5,-16.1 l 4.4,0.5 -9.8,-81.6 C 106.3,122.2 87.6,90.3 60,69.6 
		C 55.3,66.1 50.2,62.8 45,59.9 l 0,289.7 66.9,0 c 5,27.1 19.9,50.8 40.9,67 c 5,3.4 9.2,8 12.2,13.3 
		c 3,-5.3 7.2,-9.8 12.2,-13.3 c 21,-16.2 35.9,-39.9 40.9,-67 h66.9 v-289.7 c -5.2,2.9 -10.3,6.1 -15,9.7 
		c -27.6,20.7 -46.3,52.6 -49.5,88.9 l -9.8,81.6 4.4,-0.5 c 9.3,0 17.6,6.6 19.5,16.1 
		c 2.2,10.8 -4.9,21.4 -15.7,23.5 l -12,2.4 c -4.1,-7.7 -8.2,-15.4 -12,-23.3 C 183.6,229.9 174.3,200.7 175,169.6 
		c 0.4,-33.4 4.4,-66.7 5,-100 C 180,54.4 174.3,40.6 165,30 z 
	M 65,101.7 c 12.9,15.2 21.6,34.1 24.2,54.9 l 8,67.3 c -10.2,5.1 -18,14.5 -20.9,25.8 l -11.3,0 0,-148 z 
	m 200,0 0,148 -11.3,0 c -2.9,-11.3 -10.7,-20.7 -20.9,-25.8 l 8,-67.3 C 243.4,135.8 252.1,116.8 265,101.7 z 
	M 165,236.9 c 5.4,17.6 12.8,34.3 22,49.8 C 178.2,289.3 170.6,294.5 165,301.5 
		C 159.4,294.5 151.8,289.3 143,286.7 152.2,271.2 159.6,254.5 165,236.9 z 
	m -100,32.7 11.3,0 c 3.6,13.8 14.3,24.7 28,28.5 l 9.6,2.2 C 111.4,309.7 110,319.5 110,329.7 l -45,0 0,-60 z 
	m 188.7,0 11.3,0 0,60 -45,0 c 0,-10.1 -1.4,-20 -4,-29.3 l 9.6,-2.2 c 13.7,-3.8 24.5,-14.7 28,-28.5 z 
	M 133.5,305 C 145.6,306.7 155,317.1 155,329.7 l -25,0 c 0,-8.6 1.3,-16.8 3.5,-24.7 z 
	m 63,0 c 2.2,7.9 3.5,16.1 3.5,24.7 l -25,0 c 0,-12.6 9.4,-23 21.5,-24.7 z 
	m -64.2,44.7 22.7,0 0,42.1 c -11,-11.5 -19,-26 -22.7,-42.1 z 
	m 42.7,0 22.7,0 C 194,365.8 186,380.3 175,391.8 l 0,-42.1 z"/>
  <path style="fill:none;stroke:#e9cb45;stroke-width:6px" d="M 5,5 
	V345 c 0,23 13.3,44.9 35.7,54.8 L 165,455 289.3,399.8 C 311.7,389.9 325,368 325,345 v-340 h-320 z"/>
</g>




<!--leaves-->
<g id="leaves_left">
  <g style="fill:#e9cb45;stroke:black;stroke-width:1.5px">
    <path d="m 193.2,54.5 c 3.2,-6.5 7.7,-9.2 13,-10.2 0.3,-5.4 -0,-13.1 8.2,-9.7 3.1,1.1 5.2,0.9 7.2,-2.9 5.3,-10.6 
	12.1,-7.6 12.9,-3.8 0.9,4.3 3.9,2.1 5.8,-0.3 5.3,-7.1 11.8,-6.8 11.1,-0.7 -0.3,2.7 0.7,4 4.4,3.3 8.8,-2.2 
	15,7 5.7,11.1 -1.5,0.8 -2.3,1.4 -1.5,2.7 3.7,6.9 -5.8,4.8 -12,4.9 7.9,13 -10.9,8.8 -16.9,6.5 -2.8,-1.1 
	-5.3,-2 -8.2,-0.5 -3.8,2 -7.1,1.3 -10,-1.9 -2.6,-3.1 -6.1,-4 -9.5,-2.3 -2.3,1.2 -5.3,4.5 -6.7,6.3 z"/>
    <path d="m 169.5,80.3 c 4.8,-0.8 8.4,-4.1 8.7,-7.2 0.3,-5 4,-5.7 7.6,-5.8 5.1,-0.1 5.3,-1.8 7.3,-3.6 6.5,-6.3 
	19.8,-14 18.2,-0.9 4.8,-3.4 14,-8.1 13,1.6 12.8,-0.5 10.6,10.1 0.7,13.1 -2,0.7 -3.2,1.6 -2.4,3.4 3.4,8.5 
	-4.9,8 -10.8,4.4 -3,-1.6 -5.4,-0.3 -5.1,1.9 1.3,8.3 -8.8,5.9 -14,1.6 -2.2,-1.8 -4.4,-2.2 -5.7,0.5 -2.7,5.7 
	-7.9,4.1 -10.1,-0.1 -1.5,-3.7 -4.4,-6 -7.5,-5.9 -1.7,0 -1.8,-2.6 0.1,-2.9 z"/>
    <path d="m 204,26.8 c -7,-1 -10.4,5.3 -12.4,9.6 l 6.8,5.1 c 4.4,-4.3 7.8,-9.3 5.7,-14.7 z"/>
    <path d="m 191.1,34.5 10.6,7.9 c -6.2,7.1 -17.2,-0.4 -10.6,-7.9 z"/>
    <path d="m 202.8,97.9 c -4,-5.9 -10.2,-4.6 -16.1,-4.4 L 184.8,101.9 c 4.5,1.1 15.4,2.3 18,-4 z"/>
    <path d="M 188.8,90.3 185.3,103.9 c -2.7,-0 -5,-1 -6.6,-3.5 -6.7,-0.4 -13,4.2 -16.5,8.2 1,-4.1 
	1.3,-10.6 17.2,-12.9 3.9,-5.5 6.6,-5.2 9.3,-5.4 z"/>
    <path d="m 126.2,83 c 1,-2.2 3.9,-5.2 4.5,-7.9 0.7,-3.6 2.1,-7.4 6.9,-3.5 3.3,-3.2 2.7,-6.7 3,-10.1 0.2,-2.2 4.4,-3.9 
	9,-5.2 5.9,-11.7 19.2,-25.2 20.8,-10.2 3.4,-5.5 12.3,-12.3 12.8,-2.8 11,-3.7 13.3,6.5 3.6,12.2 -1.8,1.2 
	-2.8,2.4 -1.8,4.2 6.6,11.2 -7.6,6.5 -13.5,8 1.3,8.3 -2.6,11.8 -13.2,8.8 -2.9,-0.8 -6.2,-1 -5.1,1.8 3.7,7.8 
	-9.3,6.4 -13.9,2.2 1,4.5 -3.4,4.6 -7.8,4.7 0.7,9.5 -10.6,9.5 -5.3,-2.2 z"/>
    <path d="m 110.8,126.6 c 4.7,-2.8 6.7,-6.6 5.9,-10.9 -1,-5 1.2,-10.6 4.3,-9.7 5.4,1.2 7.5,-2.1 8.9,-5.4 2.3,-6.6 
	16.9,-25.6 18.5,-9.7 3.7,-4.3 11.6,-13.9 14.5,-3.6 8.7,-4.9 16.8,2.2 4.6,12.3 -1.8,1.7 -3.3,3.5 -1.8,6 
	5.5,8 -2.4,8.5 -10.4,8.9 -2.7,0.2 -3.8,1.1 -3.4,4.3 1.6,8.8 -6.9,7.6 -14.8,7 -2.5,-0.2 -4.7,0.4 -3.8,3.2 
	3.3,8.5 -9.4,6.5 -16.2,1.2 -1.5,-1.3 -3.5,-0.9 -5.4,-0.4 -2.3,0.5 -2.6,-1.9 -0.9,-3.2 z"/>
    <path d="m 88.6,154.4 c -2.7,3.9 -6.2,1.5 -4,-1.6 2.1,-3 2.4,-4.5 -0.3,-8.3 -3,-4.8 -1.2,-13.3 3.5,-16.4 4.7,-3.3 
	4.1,-7.1 3.7,-10 -1.5,-9.6 -1.7,-17.8 4.2,-17.5 3.5,0.3 3.9,-1.9 4.1,-3.9 1.3,-9.4 4,-16.6 10.7,-12.2 
	0.7,0.4 1.8,0.8 2.6,-0.1 6.6,-7.9 16.2,-10.7 10.7,5 -0.7,2.1 -0.3,4.1 1.5,5.2 3.1,1.7 5.6,6.8 -6.7,15.1 
	-1.7,1.3 -2.6,2.8 -1.9,4.2 3.8,6.2 -2.3,8.8 -8.1,10.7 -0.6,7.3 -2,14.1 -8.4,17.7 -5,2.5 -8.4,7.1 -11.6,12 z"/>
    <path d="m 65.1,181.2 8.2,-9.8 c 5.9,-0.5 9.6,-4 10.2,-6.8 2.8,-14.5 9.1,-20 18.9,-16.9 l 8.1,-1.8 c 8,-12 23.8,2 
	14.8,14.5 0.6,3.8 -3.1,5.8 -6.2,6.3 -2,0.2 -5,1.1 -3.3,3.2 4.6,5.8 0,7.4 -11.1,5.9 -7.5e-4,4.2 2.8,9.6 
	-9.3,8.6 -4.8,-0.2 -8.1,1.8 -9.4,9.5 -9.4,7.4 -16.5,2.2 -20.2,-2.5 z"/>
    <path d="m 106,133.2 c 11,-10.3 31.2,2.2 1.2,16.1 z"/>
    <path d="M 106.4,131.4 109,149.6 c -3.2,2.6 -5.9,1.6 -8.3,-1.1 -1.8,1.4 -3.5,3.1 -4.8,5.8 l -5,-3.7 c 1.8,-3.9 
	4.7,-6.3 8.1,-8.1 0.1,-7.9 3.1,-9 7.4,-11.1 z"/>
    <path d="m 50.2,235.4 c -6.9,-7.2 -7.3,-22.3 -2.5,-32.4 3.2,-5.5 1.6,-6.7 0.5,-8 -4.9,-6.1 -3.1,-10.4 1.5,-13.4 
	-3.4,-7 -8.5,-18.6 -1.6,-22.4 2.1,-1.2 3.4,-3 2.6,-5.5 -1.7,-5 -1.7,-10.5 3.9,-12.2 2.6,-0.8 4.2,-1.2 
	5.1,-3.9 3.2,-11.1 15.6,-13.6 15,5 2.8,5.2 6.5,15.3 2,18.1 -2.6,1.4 -3.7,4 -2.1,5.6 6,5.6 -0.7,14.2 -7.1,19.9 
	4.5,1.1 3.9,5.3 -1.9,8.9 -1.3,0.9 -2.3,1.3 -2,2.8 1.4,6.6 3.3,17.3 -6.4,26.6 l -3.6,11.4 z"/>
    <path d="m 86.3,144.4 -12.7,3.5 c -0.1,-9.9 -0.4,-17.5 6.1,-21.7 4.9,0.8 7,9 6.7,18.2 z"/>
    <path d="m 80.9,167.2 c -1.3,2.6 -7.1,1.1 -5.6,-1.7 1.8,-3 2.1,-6.1 2.3,-9.2 -2.3,-1.5 -4.4,-3.5 -4.1,-8.4 3.9,-3.5 
	8.2,-4.3 12.7,-3.5 0.7,4.2 0.6,8 -3.7,11.7 -0.1,3.5 0.1,6.8 -1.7,11.1 z"/>
    <path d="m 47.8,265.2 -4.1,-3 c -0.2,-8 -1,-16.8 5.5,-23 6.9,-6.1 -1.8,-18.7 9,-18.9 0.7,-7.3 0.8,-14.3 6.9,-13.5 
	1.1,-6.4 1.8,-15 8.4,-11.1 2.2,1.3 4.5,1.1 6.6,-0.5 14.3,-10.8 19.8,5.8 7.2,20.6 6.9,9.2 2,17.6 -13.2,16.5 
	3.6,7.7 -4.9,10.6 -14.8,13 z"/>
    <path d="m 52.2,254.5 c 2.8,-6.3 7.8,-13.1 14.3,-10.3 3.4,4.3 -1.2,13.5 -7.9,20.3 z"/>
    <path d="m 52.6,251.2 7.2,12.2 c -0.7,3.1 -2.2,5.7 -6,6.3 -5.2,8.4 -3.8,15.8 -3.1,23.2 L 42,296.8 c -7.5,-7.4 
	-8,-15.9 -8.1,-24.4 -4,-3.2 -9.5,-5 -5.6,-15.4 1.7,-4 -0.1,-7.1 -1.6,-9.2 -7,-8.9 -3.9,-10.9 -2.5,-14.4 
	1.3,-2.8 1.5,-4.5 0.6,-6.5 -4.4,-9.2 -4.3,-16.5 1.7,-19.9 C 27.2,206.6 28.5,206.7 28.6,205 c 0.5,-17.3 
	8.9,-16.7 10.8,-6.2 0.4,2.2 0.5,5.1 2.9,4.6 10.6,-2.7 8.4,10.9 5.4,25.5 4.6,1.2 7.8,4 -0.4,19 -1.4,3.1 
	-2.6,6.9 2.1,10.1 0.8,-3.1 1.9,-5.2 3.2,-6.8 z"/>
    <path fill="none" d="m 49.4,258 c -0.4,2.7 -0.4,4.5 0.5,6.4 c -2.3,3.8 -4,8.3 -4.5,14.1"/>
    <path d="m 33.2,299.6 c -3,-6.4 -6.2,-15.3 -2.2,-21 2.9,-1.8 8.8,4.9 9.4,14.3 z"/>
    <path d="m 40.9,324.8 c 0.6,-8.4 -0.2,-15.6 -2.9,-21.1 -2.1,-0.1 -4.1,0.3 -6.5,-3.7 4.5,-3.1 7.6,-6.4 9.4,-9.9 
	2,2.5 2.6,6 0.8,10.8 3.6,7 3.2,15.7 3.1,24.2 z"/>
    <path d="m 48,347.6 -0.4,-17.6 c -4.5,-8.4 -4.3,-13.5 -2.1,-20.2 -4.8,-10.6 -4.9,-19.1 3.5,-21.8 0,-9.7 -1.3,-20.3 
	8.3,-20.4 8,-16.2 22.8,-14.5 13.9,6.2 7.9,4.5 4.5,11.8 -2.9,19.5 3.9,5.3 5.2,10.5 -5.4,15.7 -2.9,1.4 
	-5,3.6 -3.8,6.3 2,3.8 3.2,10 -5.2,16.2 l -1,16.2 z"/>
    <path d="M 50.9,392.6 42.2,371.1 c -2.9,-1.1 -2.7,-3 -2.7,-4.9 -8.1,-3.5 -6,-7.7 -6,-11.8 -4.4,-4 -9.4,-5.9 -7.2,-12.7 
	-1.7,-3 -0.9,-5.9 0.2,-8.7 -7.5,-10 -9.9,-14.4 -4.6,-19.8 -5.9,-23.5 9.9,-22.8 14,-6.9 5.2,1.5 5.3,9.2 
	5.9,16.3 7.9,0.7 7.2,11.5 6.4,22.4 9.2,-1.5 4.8,12.2 2,22.9 -1.6,7.5 1.6,14.2 4.5,21.1 z"/>
    <path d="m 71.1,421.8 -7.4,2.3 C 59.3,408.7 47.6,386.2 52.1,377.8 c 2.4,-3.6 2.1,-6.2 0.4,-9.2 -6.3,-9 -7,-16.6 
	-0.5,-19.1 2.8,-1.1 3.1,-3.1 2.5,-5.8 -2,-9.3 -2.3,-16.6 2.3,-18.6 2.1,-0.7 3.7,-2.5 4.8,-4.8 5.1,-9.8 
	14,-0.9 13.6,11 5.9,3.5 3.6,10.1 0.2,15.2 2.4,0.2 5,2.2 -3.4,9.5 5.1,3.4 4,9.4 -3.4,18 -6.4,7.9 2.6,26.6 2.5,47.7 z"/>
    <path d="m 63.4,393.2 c 1.4,-11 3.7,-17.7 7.7,-17.2 7.2,5.6 4.2,15.4 3.9,24 -4.1,0.9 -8.2,0.3 -11.6,-6.8 z"/>
    <path d="m 72.9,430.5 c -5.3,-6.9 -6.5,-15.1 -6.7,-23.7 -3.3,-2.7 -4.1,-7.3 -2.9,-13.6 3.8,2.6 7.3,6.3 12.1,4.9 
	0.2,4.3 0.4,9.2 -4.1,11.6 -0.3,6.9 0.8,12.3 6.3,19.3 z"/>
    <path d="m 90.5,454.5 c -9.9,-0.7 -12.6,-6.4 -15.6,-11.9 -11,-5.1 -14.6,-10.4 -15.4,-15.9 -5.4,0.4 -12.1,2.9 -11.6,-6.4 
	0.1,-2.3 -1.6,-4.7 -4.8,-4.5 -6.1,0.5 -8.8,-3.5 -7.8,-12.5 -4.6,-3.9 -8.6,-9 -6.9,-12.6 1.2,-2.1 1.1,-4.1 
	0.6,-6 -1.5,-6.2 -3.4,-18.6 6.8,-9.6 6,-12.1 9.7,2.6 12.9,10 
	5.3,-0.6 9.3,-0.2 11.2,19.5 6,3 11.5,8.5 16.6,25.3 L 93.2,451.2 z"/>
    <path d="m 74.5,457.2 c -10.3,-2.5 -12.6,-8.3 -11.7,-14.9 2.5,-3.4 8.6,-0.2 11.9,3.5 z"/>
    <path d="m 97.2,472.4 c -4,-6 -10.7,-11.4 -16.9,-14.9 -2.2,2.3 -4.5,2.3 -6.9,1.6 
	-1.9,-5 -1.1,-10.1 0,-15.1 3.3,1 6.1,3.4 7.3,8.1 5.5,3.7 13.9,8.5 16.8,15.6 z"/>
    <path d="m 110.5,490.5 c -0.5,-4.8 -0.7,-9.8 -4.4,-11.3 -6.1,-4 -10.5,-10 -11.4,-14.7 -4.9,-3.8 -10.3,-9.1 -10.2,-12.7 
	0.3,-3.6 -0.4,-6.6 -2.1,-8.2 -7.5,-6.8 -9.2,-13.4 -7.2,-20 -5,-8 -5,-13.2 -2,-16.9 -7.6,-22.3 8.7,-23.9 
	10.2,-9.5 0.3,2.6 0.3,4.3 2.6,4.5 4.1,0.6 4.7,5.2 4.4,10.8 -0,2.1 0.4,4.3 2,5.4 6.5,4.1 5.4,10.7 4.1,17.4 
	-0.6,3.2 -0.3,6.6 2,8.8 4.1,3.5 7.8,8.2 7.6,21.2 3.3,7.2 7.6,14 7.8,22.8 z"/>
    <path d="m 112.8,489.2 c -4.3,-10.7 -8.3,-12.8 -12.4,-12.5 -4.8,-6.5 -8.4,-15.1 -18.1,-13.3 -1.6,-7 -7.6,-10 -11.9,-2.3 
	-5.1,-1.2 -12.1,3.7 -4.9,11.6 2.1,2.1 4.1,4.6 4.2,8 0.5,3.9 4.3,9.4 10.7,8.2 1.8,3.4 6.9,11.8 13.2,9.6 
	1.4,-1.7 3.1,-2.6 5,-1.5 3.8,2.2 7.3,1.6 10.7,-0.1 z"/>
    <path d="m 151.8,508.5 c -14.9,-8.9 -39.3,-10.5 -38.1,-31.8 -3.4,-5.9 -12.7,-10.4 -6.1,-15.9 -3.9,-20.7 8.1,-19.3 
	14.1,-7.2 4.9,-1.1 7.5,1.1 8.2,6 0.4,2.1 0.5,3.5 2.8,3.9 4.9,1.4 3.7,5.5 4,8.8 1.4,-0.7 2.3,0.2 2,4 -0,1.2 
	0.9,3.1 2.1,3.1 6.6,-0.7 5.2,9 7.4,14.5 l 6.5,12.6 z"/>
	<path style="fill:black;stroke:none" d="
		m 104.4,490 -5.8,-2.2 c -3.3,0.9 -6.2,2.7 -9.2,4.4 1.8,-2.1 3.9,-4.5 8.3,-5.6 L 87.3,480.9 c -4.6,0.6 
		-7,-0.1 -10.1,-0.4 2.6,-0.2 5.3,-0.1 7.8,-0.7 -5.5,-3.2 -10.5,-7.1 -15.5,-11 5,2.8 10.4,5.8 14.8,9.3 
		-0.8,-2.2 -1.9,-4.3 -3,-6.4 1.8,2.1 3.8,3.9 5.2,7 l 9.9,5.7 
		c -1.1,-3.2 -3,-5.5 -4.6,-8.1 2.5,2.7 4.9,5.4 7.7,9.9 z"/>
	<path style="fill:black;stroke:none" d="
		m 135,492.4 c -4.7,0.5 -11.3,-3 -14.1,-7.6 3,2.5 8.1,5.1 12.4,5.7 l -7.8,-10.5 c -4.3,-1.8 -7.3,-4.3 
		-10,-7 2.7,1.4 5.5,3.8 8.5,4.4 l -6.1,-10.4 c -2.1,-0.6 -3.6,-2.4 -5.1,-4.1 1.4,0.8 2.6,2.1 4.3,2.3 
		l -2.8,-8.1 4.2,7.7 c 1,-1.7 0.9,-4 1.1,-6.1 0.4,2.6 0.9,5.1 0.1,8.4 l 5,9.1 c 1.7,-2.8 1.3,-5.9 1.7,-8.8 
		0.4,3.3 0.9,6.4 0.3,11.3 l 8.2,11 c 1.4,-4.3 0.4,-8.6 0.4,-12.9 1.5,3.8 2.1,8.1 0.9,14.5 l 5.9,8.4 z"/>
    <path d="m 184.9,519.4 c -8.9,0.5 -12.6,-1.6 -17.2,-3.1 -4.6,0.3 -9.1,0.5 -10.8,-1.9 -0.6,-0.9 -3.6,-0.9 -3.7,0.6 
	-0,2.8 -2.1,7.6 -7.4,3.4 l -8.6,0.1 c -2.8,6.3 -11.9,-0.8 -14.9,-5.9 -5.2,2.1 -9.3,-0.4 -12.2,-6.6 -1.4,-3.1 
	-3.3,-5.2 -5.8,-7.1 -7.7,-6.4 -3.1,-12.8 3.8,-12 0.1,-6.4 8.6,-6.3 10.2,-1.9 0.7,1.7 2,3.7 3.9,2.8 6.3,-3.6 
	8.9,3.3 12.5,7.1 2.1,-0.2 3.7,1.5 5.2,3 5.1,-2.8 9.8,5.3 15.8,7.5 l 29.6,9.1 z"/>
    <path d="m 210.2,533.2 -5.7,4.8 c -8.2,-6.4 -18,-11.9 -23.3,-20.2 -5,1.2 -7.3,-3.4 -10.4,-6.4 -9.1,-1.4 -16.7,-4.4 
	-17.3,-15.4 -6.5,-4.9 -10.9,-10.1 -9,-16.4 -4.9,-16.7 2.8,-21.2 12.7,-8.3 9.1,-4.2 8.1,4.1 11.5,7.6 2.9,0.2 
	5.7,0.7 6.5,7.6 1.9,-0.5 2.7,1.4 2.3,5.7 5.2,3.8 10.8,2.4 14.8,19.1 z"/>
    <path d="m 218,539.2 c -6.1,-0.7 -10.5,0.7 -12.6,4.8 -4.3,8.8 -8.9,13.6 -14.4,4.5 -3.9,6.7 -8.5,8.4 -14.2,-0.5 
	-8.1,2.7 -12.2,0.7 -13,-4.9 -0.6,-3.9 -3.9,-4 -6.4,-4.8 -6.5,-2.1 -10.2,-21 2.6,-20.8 4.7,-1 8.9,-2.8 
	18.4,3.4 6,-1.6 14.7,-2.4 16.6,3.8 2.7,7.9 8.8,7.8 23,7.6 z"/>
    <path d="m 188.7,512.2 c -3.9,-5.2 -6.2,-10.8 -5.1,-17.1 6.1,-0.1 9.6,6 13.4,11.6 z"/>
    <path d="m 188.7,512.2 c 0.5,4.7 3.6,6.1 7.6,6.3 2.6,2.5 5.9,3.7 9.5,4.1 L 207,519.9 c -3,-0.9 -6.3,-0.9 -7.8,-3.1 
	1.9,-4.1 -0.6,-9.4 -2.1,-11.6 -4.1,1.4 -6.3,3.4 -8.4,6.9 z"/>
    <path d="m 242.9,524.6 -8.7,-0.5 c -1,-8.6 -1.7,-16.8 2.4,-19.5 7,5.9 6.1,13.1 6.3,20 z"/>
    <path d="m 248.5,545.4 -5.5,-0.1 c -2.1,-4.3 -3.8,-8.6 -4.6,-13 -4.6,-3.2 -6.6,-6.6 -6.1,-10.2 3.5,1.4 7.6,1.9 
	12.3,1.5 0.5,2.6 0.7,5 -1.1,7 -0.9,4.6 1.6,9.7 5.1,14.8 z"/>
    <path d="m 218.9,554.1 c -5.1,0.8 -11.2,1.8 -12.6,-5.1 -0.2,-7.2 5.6,-8.1 10.4,-8.7 4.4,6.6 3.1,10.4 2.2,13.8 z"/>
    <path d="m 238.4,544.9 c -4.3,1.8 -8.3,4.5 -13.2,3.8 -1,3.9 -3.1,6.6 -7.6,6.6 0.7,-5.9 -0.2,-10.9 -2.3,-15.2 2.6,-0.7 
	4.9,-0.5 6.4,2.5 5.1,1.2 9.8,-0.5 14.6,-1.3 z"/>
    <path d="m 275.8,571 c -3,4.7 -4,10.5 -3.5,17.2 -6.4,-1.1 -14.9,-17.4 -22.9,-27 -7.1,-8 -15.8,-14.9 -24.5,-21.7 
	-2.4,-1.8 -4.4,-2.6 -7.2,-2.3 -2.8,0.1 -5.2,-3.1 -6.2,-9.2 -8.4,-5 -17.5,-9.6 -13.6,-22.1 -3.8,-3 -5,-6.7 
	-4.8,-10.9 -9.5,-13.9 3,-32.5 11,-17.9 5.6,-1.9 10.7,-1.8 11.7,11.3 0.2,1.9 -0.2,4.7 1.6,4.6 4.4,-0.2 
	9,-0.6 7.1,20 3.7,1.3 8.6,1 4.6,13.1 -1,3.4 1,7.2 4.8,10.3 C 248.5,547 258.2,558.3 275.8,571 Z"/>
  </g>

  <g fill="black">
    <path d="m 210.7,45.3 4,-1.1 c 0.2,-3.1 0.9,-3.5 1.9,-4.7 -0.5,1.4 -1,2.9 -0.7,4.5 l 7.4,-1.3 c -0.1,-3.1 0.5,-5.7 
	2.5,-7.7 -1.1,2.7 -1.5,4.6 -1.3,7.5 l 8,-1.5 c -0.3,-3 0.2,-5.3 2.2,-6.7 -0.6,1.9 -1.5,3.4 -1,6.6 l 8.9,-1.8 
	c 0.2,-1.9 1.3,-3.8 2.7,-4.9 -0.6,1.4 -1.4,2.6 -1.4,4.6 l 12.3,-2.9 -12,4 c 0,0 2.5,2.2 7.2,3.8 0.9,0.3 
	-6.6,-0.9 -8.3,-3.4 l -9,1.9 c 0.7,2 2.7,3 4.9,4.3 -2.3,-0.1 -4.7,-1.2 -6.1,-3.9 l -8.2,1.4 c 1.5,2.6 
	4.7,5 8.1,6.8 -3.7,-0.8 -7.5,-3 -9.1,-6.5 l -7.6,1.1 c -0.3,1 1.7,2 2.8,3 -1.6,-0.5 -3.4,-0.7 -4.1,-2.6 z"/>
    <path d="m 177.9,81.1 3.8,-1.3 c 0.5,-2.6 1.8,-3.6 2.8,-5.1 -0.7,1.6 -1.8,3.1 -1.7,4.9 l 7.8,-2.3 c 0.5,-4.6 3.4,-7.4 
	5.8,-10.6 -1.8,3.3 -4.1,6.5 -4.8,10.4 L 199.2,75.2 c 0.6,-3.4 2.6,-5.1 4.4,-6.9 -1.3,2 -2.9,3.8 -3.3,6.7 
	l 10,-1.9 c 1,-2.9 3.1,-5.2 5.4,-7.2 -1.7,2.2 -4,4.3 -4.4,6.9 4.5,-1.5 8.6,-1.5 12.5,-1.4 -4.1,0.5 -8.4,1 
	-12.2,2.5 0.1,1.6 1.9,2.7 3.2,3.7 -1.8,-0.5 -3.4,-1.3 -4.3,-3.4 l -9.9,2 c 0.6,2.1 2.6,3.7 4.4,5.4 -2.3,-0.7 
	-4.2,-2.4 -5.7,-5.1 l -7.5,1.7 c 0.7,2.1 2.6,4.1 4.4,6.1 -2.8,-1.2 -4.3,-3.4 -5.5,-5.8 l -7.8,2.1 c 0.5,1.8 
	2.1,2.7 3.3,3.9 -1.7,-0.8 -3.4,-1.6 -4.3,-3.7 z"/>
    <path d="m 142,73.4 2.9,-2.8 c -0.1,-2.4 0.8,-4 1.8,-5.5 -0.3,1.5 -0.7,3.2 -0.3,4.7 l 6.6,-4.3 c 0.4,-5.9 2,-8.4 
	3.6,-11.5 -0.9,3.5 -2.6,7 -2.3,10.8 l 6.7,-3.9 c 0.4,-3.9 1.7,-5.3 2.7,-7.5 -0.5,2.2 -1.3,4.5 -1.2,6.7 
	l 8.8,-4.4 c 0.5,-3.3 2.3,-5.8 4.2,-8.4 -1.1,2.5 -2.6,4.7 -2.8,7.7 2.9,0.4 7.6,-3.1 11.6,-4.9 -3.6,2 
	-4.6,4.8 -11.2,6.2 0.7,1.2 2.6,1.8 4.2,2.5 -2,0.1 -3.9,-0.2 -5.3,-1.9 l -9,4.6 c 0.9,1.7 3.2,2.7 5.1,3.9 
	-2.3,-0.5 -4.8,-0.9 -6.6,-3.2 l -6.9,3.8 c 1,1.9 3.5,3 5.7,4.3 -2.4,-0.1 -4.6,-1.1 -6.8,-3.8 l -6.8,4.2 
	c 0.4,1.3 2.1,1.9 3.4,2.7 -1.6,-0.4 -3.2,-0.2 -4.6,-1.9 z"/>
    <path d="m 120.4,123.6 3.1,-2.9 c -0.1,-2.4 0.8,-4.2 1.5,-6.1 -0.1,1.7 -0.5,3.5 -0.1,5.1 l 6.4,-5.1 c -0.2,-5.1 
	1.8,-9.2 3.4,-13.4 -0.8,4.1 -2.2,8.2 -1.8,12.5 l 7.2,-5 c 0,-3.6 1.4,-6.2 2.6,-8.8 -0.5,2.6 -1.7,5.2 -1.2,8 
	l 9.1,-5.9 c 0.1,-4.3 2.2,-7 4,-9.9 -1.1,3 -2.8,5.9 -2.5,9.1 L 164.2,94.8 152.6,102.5 c 1.3,1.3 3.2,1.6 
	4.9,2.2 -1.9,0.2 -3.8,0.1 -6.1,-1.5 l -9.1,6 c 1.7,1.9 4.1,2.8 6.6,3.6 -2.1,0.4 -4.3,-0.2 -7.8,-2.6 
	l -7.4,4.9 c 1.7,2.3 4.4,3.2 6.8,4.5 -3,-0.5 -6,-1 -8.2,-3.4 L 125.2,121.1 c 0.6,1.2 2.5,1.7 4.3,2.3 
	-1.4,0.2 -2.7,0.6 -5.4,-1.5 z"/>
    <path d="m 94,134.7 0.5,-3.2 c -1.6,-1.4 -1.5,-2.6 -1.5,-4.2 0.5,1.1 0.7,2.4 2,2.6 l 3.6,-8.5 c -2.9,-2.7 -2.3,-6 
	-2.8,-9 1,2.7 1.6,6.2 3.5,7.3 L 104.5,108.4 c -2.1,-2.5 -1.8,-5.4 -1.8,-8.6 0.8,2.4 0.8,5.5 2.6,7.1 
	l 4.9,-8.8 c -0.5,-1.6 -0.5,-3.1 -0.1,-4.6 0.2,1.1 0.3,2.3 0.9,3.2 2.4,-4.1 5,-7.5 7.8,-10.6 -2.5,3.8 
	-4.8,7.7 -6.9,11.5 0.9,0.4 2.2,0 3.3,-0.3 -0.5,1.5 -1.7,1.9 -3.9,1.6 l -4.9,8.5 c 1.5,0.7 3.7,-0.4 5.3,-1.1 
	-0.9,1.6 -1.8,2.4 -5.9,2.6 l -5.2,11.3 c 2.2,0.6 4.6,-0.8 6.9,-1.5 -1.9,1.8 -4.2,3.1 -7.5,3.2 l -3.8,8.4 
	c 0.9,0.6 2.4,-0.2 3.6,-0.7 -0.9,1.3 -2.1,2 -4,2.1 z"/>
    <path d="m 82.2,181.4 c -1,-3.7 0.2,-5.3 0.6,-7.7 -0,2.2 -0.1,4.5 0.5,5.9 l 6.5,-5.3 c -0.4,-4.9 0.6,-7.3 1.6,-9.7 
	-0.5,2.9 -1,5.9 -0.4,8.7 l 9.9,-7.5 c -0.3,-4.7 1.3,-7.8 2.6,-11.2 -0.5,3.4 -1.6,6.8 -0.9,10.3 l 7,-4.7 
	c 0.4,-4.2 2.4,-5.1 3.8,-7.2 -0.7,2 -2.7,4 -2.5,6.5 l 11.7,-6.1 -11.1,7.6 c 1,1.1 2.4,1.5 3.7,2.3 -1.7,0.2 
	-3.4,-0.3 -5,-1.7 l -7.2,4.9 c 2.1,2 5,3.1 8,3.9 -3.3,0.3 -6.5,-0.7 -9.6,-2.7 l -9.7,7.1 c 0,0 5.7,3 
	8.3,3.8 1.4,0.4 -2.4,1.1 -9.6,-2.8 l -6.4,5.1 c 1,1.5 3.1,1.5 4.7,2.1 -2.1,0.6 -4.4,0.1 -6.9,-1.5 z"/>
    <path d="m 118.9,133.4 c -3.7,-2.1 -6.6,-1 -9.5,0.1 l 0.3,1 c 2.5,-1.1 5.1,-2.1 9.2,-1.2 z"/>
    <path d="m 56.5,208.8 c -0.9,-4.4 -0.3,-9.5 -2e-6,-14.3 -1.5,-0.8 -2.2,-2.2 -2.9,-3.8 1,0.8 1.9,2.1 3.1,2.3 l 1.1,-10.9 
	c -3.1,-1.8 -4.5,-5.1 -5.9,-8.4 1.9,2.3 3.5,4.8 6.2,6.5 l 1.3,-9.5 c -3.1,-2.1 -3.6,-5.1 -4.5,-7.9 1.4,2.2 
	2.4,4.7 4.8,5.9 l 2.6,-12.4 c -2.5,-2.1 -2.8,-5 -3.5,-7.7 1.3,2.1 1.9,4.5 4,5.9 l 4.3,-14 -2.8,13.9 
	c 1.5,-0.8 2.6,-2.5 3.9,-3.8 -0.7,2 -1.4,3.9 -4.2,5.7 l -2.7,12.6 c 2.6,-0.7 4.9,-3.2 7.3,-5 -1.9,2.3 
	-1.9,4.7 -7.6,6.9 l -1.4,9.6 c 3.2,-0.6 5,-3.1 7.3,-4.8 -2,2.4 -2.9,5.2 -7.6,6.6 l -1.2,10.8 c 2.1,-0.6 
	2.9,-1.8 4.2,-2.7 -0.4,1.8 -1.5,3.4 -4.2,4.3 -0.3,4.8 -0.3,9.5 -1.5,14.1 z"/>
    <path d="m 59.9,233 2,-3.6 c -0.1,-5.8 1.3,-9.7 2.7,-14.3 -0.5,3.9 -1.8,8.2 -1.4,12 l 7.8,-10.3 c -0.3,-5.4 1.2,-8.5 
	2.4,-11.9 -0.6,3.4 -1.5,6.8 -1,10.2 l 6.6,-7.4 c -0.1,-3.4 1.4,-5.1 2.6,-7.2 -0.4,1.9 -1.3,3.7 -1.1,5.7 
	l 6.1,-5.4 -5.9,7.2 c 2,0.6 3.6,0.5 5.6,0.4 -1.9,0.8 -3.7,1.6 -6.8,0.9 l -6.5,7.7 c 1.6,1 5,0.9 8.3,0 
	-1.1,2.7 -6.1,2.3 -9.5,1.7 L 64.2,228 c -0.5,0.8 -1.2,1.7 -0.3,2 
	2.3,0.7 5.5,-0.3 8.4,-0.6 -2.4,1.6 -5.7,2.7 -9.6,1.7 z"/>
    <path d="m 62.9,245.2 c -3.1,1.9 -6.2,3.8 -8.2,8 l 0.8,0.6 c 2,-3.5 4.6,-6.2 7.4,-8.7 z"/>
    <path d="m 40.7,274.6 -3.5,-13.7 c -4,-3.8 -5.6,-7.3 -7.6,-11.7 2.3,2.7 4.3,6.8 7.2,8.7 l -2.2,-17.5 c -3.3,-3.2 
	-5.4,-6.7 -7,-10.6 2.2,2.7 4,6 6.7,8.2 l -0.6,-13.5 c -2.1,-2.3 -3,-5.4 -3.9,-8.5 1.2,2 2.1,4.3 3.8,5.7 
	l 0.5,-16.4 0.9,16.5 c 1.8,-1.1 2.1,-2.6 2.9,-4 -0.1,2.3 -0.3,4.1 -2.6,6.5 l 0.7,13.7 c 2.4,-2.1 3.6,-6 
	5.2,-8.9 -0.1,3.6 -3.4,10.1 -4.8,11.1 -0.1,0.4 2.2,17.7 
	2.2,17.7 3.3,-4.4 4,-9.5 5.9,-14.3 -1.3,5.9 -1.7,11.1 -5.2,17.5 z"/>
    <path d="m 33.1,281.2 c 2.5,2.3 4.5,4.9 5.3,8.4 l -1,1 c -0.7,-3.4 -2.5,-6.4 -4.3,-9.4 z"/>
    <path d="M 50.9,324.8 50.8,318.2 c -1.7,-1.4 -2.1,-3.1 -2.7,-4.8 0.9,1 1.8,2.4 2.9,2.8 l 1.9,-10.9 C 50,302.8 
	49.2,299.2 48,295.8 c 1.7,2.6 2.8,5.4 5.3,7.4 L 57.3,290.9 c -2.6,-3.3 -2.5,-6.7 -3.2,-10.1 1.1,2.6 2.1,5.8 3.9,8 
	l 3.3,-10.2 c -1.2,-3.2 -0.9,-6.3 -0.5,-9.5 0.3,3.1 0.6,6 1.2,7.6 l 6.3,-13.5 -5.1,14.5 c 1.3,0.5 2.8,-0.4 
	4.2,-0.7 -1.3,1.3 -2.5,2.4 -4.7,2.4 l -3.3,10.1 c 3.2,-0.2 6.1,-2.4 9,-3.6 -2.8,2.7 -5.6,5.1 -9.6,5.6 
	l -3.9,12 c 3.2,0.1 6.4,-2.5 9.7,-4.1 -2.6,2.3 -3.3,4.9 -10.3,6.3 l -2.2,11.2 
	c 1.5,0.1 2.4,-1.3 3.5,-1.9 -0.7,1.4 -1.1,3 -3.6,3.6 z"/>
    <path d="m 42.5,353.1 c 0.5,-3 0.3,-5.9 -1.2,-8.5 1.6,-4.3 1.3,-7.5 1.4,-11.6 -0.7,3.2 -1,6.7 -2.2,9.7 L 35.6,330.5 
	c 1.7,-3.8 1.6,-7.7 1.9,-11.5 -0.9,3.3 -1.4,7.3 -2.7,9.7 L 32,319.7 c 0.9,-2.6 1.3,-4.1 1.1,-6.8 -0.4,2 
	-0.4,3.5 -1.5,4.8 -2.1,-4.9 -3.2,-9.7 -4.3,-14.4 0.3,4.2 0.4,8.2 2.9,14.8 -2,-0.3 -3.2,-1.7 -4.6,-2.9 
	1.4,1.9 2.2,3.4 5.2,5.1 l 3.2,9.8 C 31.9,330.6 29.7,329.4 27.6,329 c 2,1.6 4.2,2.7 6.9,2.8 l 5.1,13.1 
	c -2.7,1.2 -5,0.2 -8.1,-0.8 2.7,1.9 5.4,3.5 9,2.6 1.2,1.4 1.5,4 2,6.4 z"/>
    <path d="m 59.4,382 -0.8,-7.6 c -2.6,-4 -3.2,-8.7 -3.8,-13.2 1.1,3.2 1.9,8.3 3.8,11.1 l 0.7,-16.5 c -1.6,-1.9 
	-1.8,-4.2 -2.2,-6.6 0.7,1.7 1.2,3.8 2.4,4.7 L 61.1,348.5 c -1.7,-1.3 -2.1,-3.3 -2.8,-5.2 0.9,1.2 1.5,2.8 3,3.6 
	l 0.9,-5.8 c -2.3,-2.6 -3.3,-5.4 -4.3,-8.4 1.4,2.3 2.6,4.8 4.7,6.6 1,-4.7 2.8,-7 4.4,-10.1 -1,3.5 -2.7,6.7 
	-2.9,10.6 2.8,-0.6 4.8,-2.4 6.9,-3.8 -1.5,2.2 -2.3,4.1 -7.1,5.6 l -1.2,6.3 c 2.1,-0.6 4.1,-2.8 6.1,-4.1 
	-2,2.4 -3.6,4.6 -6.4,5.8 L 61,354.3 c 1.8,0 2.5,-1.7 3.7,-2.8 -0.4,1.7 -0.9,3.5 -3.8,4.5 l -0.8,16.4 
	c 2.1,-0.9 3.6,-3.8 5.3,-5.8 -0.7,2.6 -1.1,4.4 -5.3,7.9 z"/>
    <path d="m 72,382 c 0.9,1.8 1.6,3.8 1.6,6.8 -0.4,0.4 -0.8,0.8 -1.2,1.4 0.4,-3.1 0.1,-5.8 -0.5,-8.2 z"/>
    <path d="m 69.7,431.4 -9.9,-10.2 c -2.6,-0.2 -4.7,-1 -6.9,-1.8 1.9,10e-4 3.7,0.3 5.7,-0.2 l -5.9,-7.3 c -3.7,-1.7 
	-7,-1.8 -10.6,-2.5 3.1,0 6.2,-0.4 9.5,0.8 l -7.7,-10.9 -6,-3.6 4.9,1.6 -6.7,-12.3 7.6,11 0.6,-4.9 1,7.5 7,9.9 
	c 0.2,-3.3 -1.2,-7.3 -1.9,-10.7 1.7,3.7 3,7.6 3.2,12.2 l 6.1,8.1 
	c 0.4,-1.3 0.2,-3.5 0.1,-5.3 0.6,1.9 1.3,3.6 1.4,6.4 z"/>
    <path d="m 64.3,443.5 c 1.8,-0.6 4.5,-0.3 6.9,1.8 l -0.3,1.4 c -2.3,-1.8 -4.4,-2.4 -6.6,-3.2 z"/>
    <path d="m 96.5,457 -4.6,-8.1 c -4.5,-1.7 -6.7,-5.6 -8.8,-9.5 2.5,2.6 5.2,6.5 8.2,8 l -5.2,-14.6 c -2.9,-1.9 -4.9,-4.8 
	-6.9,-7.9 2,1.9 4.3,4.5 6.4,5.6 l -3.2,-11.5 c -1.8,-1.3 -3.3,-2.8 -4.2,-4.9 1.2,1.1 2.4,2.3 3.8,2.8 
	0.1,-4.1 -0.6,-7.8 -1.8,-11.1 1.9,1.4 2.7,6.1 3.2,11.5 1.3,-0.8 1.7,-2.1 2.5,-3.2 -0.5,1.7 -0.6,3.5 -1.9,4.9 
	l 2.9,11.2 c 1.6,-1.7 2.2,-4.6 3.1,-6.9 -0.5,3 -0.1,5.9 -2.4,9.2 l 5,14.6 
	c 1.7,-1.9 1.4,-4.9 1.9,-7.6 0.6,3.4 0.4,6 -1.3,9.1 z"/>
    <path d="m 156.3,510.5 c -1.9,-0.9 -3.7,-1.8 -6,-1 -1.4,-2.5 -3.4,-3.7 -5.2,-5.2 1.2,1.6 2.8,3.3 3.3,4.7 l -8.7,-2.6 
	c -2.4,-3.5 -4.2,-5.6 -7.6,-7.9 1.9,2.5 4.1,5 5.4,7.4 L 126.1,501.5 c -1.6,-2.9 -3.4,-4.5 -5.2,-5.9 1,1.7 
	2,3.4 3.2,4.9 -5.3,-2.7 -10.6,-4.5 -15.9,-6.4 4.7,3 9.9,6.2 16.6,8.6 -1.7,1.2 -4.7,1.5 -7.5,2.1 2.8,0.4 5.7,0.4 9,-1.2 
	l 11.9,4.1 c -3.5,1.9 -5.2,4.4 -6.9,6.9 2.8,-2.1 5.8,-5 8.5,-6.1 l 8.5,1.6 c -1.9,1 -2.8,2.2 -3.8,3.5 
	2,-1.5 4,-2.7 5.8,-3.2 2,-0.5 4,-0.2 6,0 z"/>
    <path d="m 180.4,510.5 -4.2,-3.3 c -4.4,-1 -6.3,-2.5 -9.1,-4.5 2.5,1 5.1,2.2 7.5,2.8 l -9.7,-9.6 c -4,-0.7 -7.6,-1.4 
	-9.9,-4.4 2.6,1.1 5.3,2.3 8.1,2.5 l -7,-8.2 c -2.9,-1 -4.5,-2.4 -6,-3.8 1.4,0.7 2.8,1.5 4.3,1.7 l -3.9,-7.3 4.9,6.4 
	c -0.1,-2.6 0.4,-4 0.7,-5.8 0.2,2.6 0.2,5.3 1.1,7.6 l 7.2,9 c 0.7,-0.8 -0.2,-7.1 -0.8,-9.2 1.8,1.1 2.5,8.4 2,10.4 
	l 9.8,9.7 c 0.3,-6.9 -0.9,-9.5 -1.8,-12.4 2.6,2.1 3.1,7 3.1,13.4 z"/>
    <path d="m 203.1,537.4 -5.7,0.3 c -1.6,-2.8 -3.6,-4.6 -5.6,-6.3 1.3,2.1 2.8,3.7 3.6,6.4 l -8.7,-1.3 c -2.4,-4.5 
	-5.3,-8 -8.7,-11.9 2.1,3.8 5.1,7.3 6.1,11.4 -3.3,-0.1 -6.1,-1.3 -8.9,-2.5 -1.6,-4.6 -4.9,-7.6 -7.8,-11 
	2,3.4 4.4,6.6 5.7,10.4 -5.8,-1.2 -10.4,-4.7 -15.2,-6.9 3.9,3.3 8.9,6.5 15.3,8.9 -0.4,2 -3.9,4 -6.2,6.1 
	2.8,-0.3 5.5,-1.8 8.2,-5.3 2.8,1 5.6,1.8 9.2,2.3 -1.4,2.8 -4.3,4.7 -6.8,6.6 2.9,-1 5.6,-2.6 9.3,-6 l 9,1 
	c 0.1,1 -0.7,2.2 -1.2,3.4 1.6,-0.9 2.5,-2.1 3,-3.7 z"/>
    <path d="m 208.1,547.7 c 1.2,-2.5 3,-4.5 6.7,-4.9 l 0,1.6 c -2.8,-0.6 -4.7,1.5 -6.8,3.2 z"/>
    <path d="m 219.7,524 c -6.4,-0.8 -9.7,-3.4 -13.8,-5.6 3.6,1.1 7.2,2.6 11,2.7 L 209.3,509 c -5.4,-0.6 -7.2,-2.7 
	-9.1,-4.7 2.5,1.3 4.9,2.7 7.8,2.8 l -4.9,-10 c -2.6,-1.1 -3.9,-3.1 -5.3,-5.1 1.3,1 2.9,2.8 4.4,3 l -4.1,-11.4 5.7,11.5 
	c 0.8,-1.5 0.7,-3.3 0.9,-4.9 0.3,2.1 0.8,4.2 0,6.8 l 4.9,9.1 c 0.9,0.3 2,-15.2 1.8,-15.1 0.6,-0 0.6,17 -0.5,17.5 
	l 7.4,11.9 c 1.2,-4.9 0.9,-10.3 1.1,-15.5 0.7,6.2 1.5,12.3 0.4,19.1 z"/>
    <path d="m 258.1,560 13.6,10 c 5.7e-4,1.9 -0.3,3.8 -0.8,5.7 -2.5,-5.6 -7.8,-10.6 -12.8,-15.7 z"/>
  </g>
</g>
<use xlink:href="#leaves_left" transform="scale(-1,1) translate(-600,0)"/>


</svg>