<?xml version="1.0" encoding="UTF-8" standalone="no"?>
<!-- Created with Inkscape (http://www.inkscape.org/) -->

<svg
   xmlns:dc="http://purl.org/dc/elements/1.1/"
   xmlns:cc="http://creativecommons.org/ns#"
   xmlns:rdf="http://www.w3.org/1999/02/22-rdf-syntax-ns#"
   xmlns:svg="http://www.w3.org/2000/svg"
   xmlns="http://www.w3.org/2000/svg"
   xmlns:xlink="http://www.w3.org/1999/xlink"
   xmlns:sodipodi="http://sodipodi.sourceforge.net/DTD/sodipodi-0.dtd"
   xmlns:inkscape="http://www.inkscape.org/namespaces/inkscape"
   width="197.56445mm"
   height="197.56445mm"
   viewBox="0 0 700.03152 700.03152"
   id="svg9730"
   version="1.1"
   inkscape:version="0.92.1 r15371"
   sodipodi:docname="Emblem_of_the_Defence_Intelligence_of_Ukraine.svg">
  <defs
     id="defs9732">
    <clipPath
       clipPathUnits="userSpaceOnUse"
       id="clipPath4491">
      <path
         sodipodi:nodetypes="scccccs"
         inkscape:connector-curvature="0"
         id="path4493"
         d="m 1761.1409,332.37069 c -18.4252,0.0727 -27.4355,4.94532 -27.4355,4.94532 0,0 0,245.37369 0,368.06054 0,0 9.0104,4.87304 27.4355,4.80274 18.4252,-0.0707 27.4356,-4.80274 27.4356,-4.80274 0,-122.68685 0,-368.06054 0,-368.06054 0,0 -9.0105,-5.01802 -27.4356,-4.94532 z"
         style="opacity:0.42699998;fill:#00ff00;fill-opacity:1;stroke:none;stroke-width:19.29999924;stroke-linecap:butt;stroke-linejoin:miter;stroke-miterlimit:4;stroke-dasharray:none;stroke-dashoffset:0;stroke-opacity:1" />
    </clipPath>
    <clipPath
       id="clipPath4771"
       clipPathUnits="userSpaceOnUse">
      <rect
         y="659.28748"
         x="-811.06537"
         height="79.995834"
         width="29.332392"
         id="rect4773"
         style="clip-rule:evenodd;opacity:0.40799997;fill:#ffd700;fill-opacity:1;fill-rule:evenodd;stroke:#806600;stroke-width:1.5;stroke-linecap:butt;stroke-linejoin:miter;stroke-miterlimit:4;stroke-dasharray:none;stroke-dashoffset:0;stroke-opacity:1;image-rendering:optimizeQuality;shape-rendering:geometricPrecision;text-rendering:geometricPrecision"
         transform="scale(-1,1)" />
    </clipPath>
    <clipPath
       id="clipPath4771-7"
       clipPathUnits="userSpaceOnUse">
      <rect
         y="659.28748"
         x="-811.06537"
         height="79.995834"
         width="29.332392"
         id="rect4773-1"
         style="clip-rule:evenodd;opacity:0.40799997;fill:#ffd700;fill-opacity:1;fill-rule:evenodd;stroke:#806600;stroke-width:1.5;stroke-linecap:butt;stroke-linejoin:miter;stroke-miterlimit:4;stroke-dasharray:none;stroke-dashoffset:0;stroke-opacity:1;image-rendering:optimizeQuality;shape-rendering:geometricPrecision;text-rendering:geometricPrecision"
         transform="scale(-1,1)" />
    </clipPath>
    <clipPath
       id="clipPath5034"
       clipPathUnits="userSpaceOnUse">
      <rect
         y="659.28748"
         x="-811.06537"
         height="79.995834"
         width="29.332392"
         id="rect5036"
         style="clip-rule:evenodd;opacity:0.40799997;fill:#ffd700;fill-opacity:1;fill-rule:evenodd;stroke:#806600;stroke-width:1.5;stroke-linecap:butt;stroke-linejoin:miter;stroke-miterlimit:4;stroke-dasharray:none;stroke-dashoffset:0;stroke-opacity:1;image-rendering:optimizeQuality;shape-rendering:geometricPrecision;text-rendering:geometricPrecision"
         transform="scale(-1,1)" />
    </clipPath>
    <linearGradient
       x1="66.028198"
       y1="25.5956"
       x2="74.565002"
       y2="34.4268"
       id="id16"
       xlink:href="#id13"
       gradientUnits="userSpaceOnUse" />
    <linearGradient
       x1="67.658501"
       y1="27.739401"
       x2="76.056198"
       y2="36.426601"
       id="id13"
       gradientUnits="userSpaceOnUse">
      <stop
         id="stop30"
         style="stop-color:#ffed00;stop-opacity:1"
         offset="0" />
      <stop
         id="stop32"
         style="stop-color:#dccf73;stop-opacity:1"
         offset="1" />
    </linearGradient>
    <linearGradient
       x1="62.575298"
       y1="25.5956"
       x2="71.112198"
       y2="34.4268"
       id="id17"
       xlink:href="#id13"
       gradientUnits="userSpaceOnUse" />
    <linearGradient
       x1="61.084202"
       y1="27.739401"
       x2="69.481796"
       y2="36.426601"
       id="id15"
       xlink:href="#id13"
       gradientUnits="userSpaceOnUse" />
  </defs>
  <sodipodi:namedview
     id="base"
     pagecolor="#ffffff"
     bordercolor="#666666"
     borderopacity="1.0"
     inkscape:pageopacity="0.0"
     inkscape:pageshadow="2"
     inkscape:zoom="0.83701585"
     inkscape:cx="373.35016"
     inkscape:cy="373.35014"
     inkscape:document-units="px"
     inkscape:current-layer="layer1"
     showgrid="false"
     fit-margin-top="0"
     fit-margin-left="0"
     fit-margin-right="0"
     fit-margin-bottom="0"
     inkscape:window-width="1600"
     inkscape:window-height="838"
     inkscape:window-x="-8"
     inkscape:window-y="-8"
     inkscape:window-maximized="1"
     inkscape:snap-bbox="true"
     inkscape:bbox-paths="true"
     inkscape:bbox-nodes="true"
     inkscape:snap-bbox-edge-midpoints="true"
     inkscape:snap-bbox-midpoints="true"
     inkscape:snap-global="false"
     inkscape:snap-intersection-paths="true"
     inkscape:object-nodes="true"
     inkscape:snap-smooth-nodes="true"
     inkscape:snap-nodes="false" />
  <metadata
     id="metadata9735">
    <rdf:RDF>
      <cc:Work
         rdf:about="">
        <dc:format>image/svg+xml</dc:format>
        <dc:type
           rdf:resource="http://purl.org/dc/dcmitype/StillImage" />
        <dc:title />
      </cc:Work>
    </rdf:RDF>
  </metadata>
  <g
     inkscape:label="Layer 1"
     inkscape:groupmode="layer"
     id="layer1"
     transform="translate(-992.29489,-182.34645)">
    <g
       id="g6228">
      <g
         transform="translate(1596.5095,2.9612701)"
         id="g6208">
        <circle
           style="opacity:1;fill:#ffdf00;fill-opacity:1;stroke:#806600;stroke-width:1.40999997;stroke-linecap:round;stroke-linejoin:round;stroke-miterlimit:4;stroke-dasharray:none"
           id="path6016"
           cx="529.40094"
           cy="254.19885"
           r="349.31076"
           transform="matrix(0,1,-1,0,0,0)" />
        <circle
           r="308.31076"
           cy="254.19885"
           cx="529.40094"
           id="circle6018"
           style="opacity:1;fill:#000000;fill-opacity:1;stroke:#806600;stroke-width:1.40999997;stroke-linecap:round;stroke-linejoin:round;stroke-miterlimit:4;stroke-dasharray:none"
           transform="matrix(0,1,-1,0,0,0)" />
        <circle
           style="opacity:1;fill:#ffdf00;fill-opacity:1;stroke:#806600;stroke-width:1.40999997;stroke-linecap:round;stroke-linejoin:round;stroke-miterlimit:4;stroke-dasharray:none"
           id="path6020"
           cx="529.40094"
           cy="-74.611916"
           r="12.866117"
           transform="matrix(0,1,-1,0,0,0)" />
        <circle
           r="12.866117"
           cy="583.00958"
           cx="529.40094"
           id="circle6066"
           style="opacity:1;fill:#ffdf00;fill-opacity:1;stroke:#806600;stroke-width:1.40999997;stroke-linecap:round;stroke-linejoin:round;stroke-miterlimit:4;stroke-dasharray:none"
           transform="matrix(0,1,-1,0,0,0)" />
        <circle
           r="12.866117"
           cy="-858.21173"
           cx="254.19885"
           id="circle6078"
           style="opacity:1;fill:#ffdf00;fill-opacity:1;stroke:#806600;stroke-width:1.40999997;stroke-linecap:round;stroke-linejoin:round;stroke-miterlimit:4;stroke-dasharray:none"
           transform="scale(-1,-1)" />
        <circle
           style="opacity:1;fill:#ffdf00;fill-opacity:1;stroke:#806600;stroke-width:1.40999997;stroke-linecap:round;stroke-linejoin:round;stroke-miterlimit:4;stroke-dasharray:none"
           id="circle6080"
           cx="254.19885"
           cy="-200.59023"
           r="12.866117"
           transform="scale(-1,-1)" />
        <circle
           r="12.866117"
           cy="225.27798"
           cx="194.59731"
           id="circle6102"
           style="opacity:1;fill:#ffdf00;fill-opacity:1;stroke:#806600;stroke-width:1.40999997;stroke-linecap:round;stroke-linejoin:round;stroke-miterlimit:4;stroke-dasharray:none"
           transform="matrix(0.70710678,0.70710678,-0.70710678,0.70710678,0,0)" />
        <circle
           style="opacity:1;fill:#ffdf00;fill-opacity:1;stroke:#806600;stroke-width:1.40999997;stroke-linecap:round;stroke-linejoin:round;stroke-miterlimit:4;stroke-dasharray:none"
           id="circle6104"
           cx="194.59731"
           cy="882.89948"
           r="12.866117"
           transform="matrix(0.70710678,0.70710678,-0.70710678,0.70710678,0,0)" />
        <circle
           style="opacity:1;fill:#ffdf00;fill-opacity:1;stroke:#806600;stroke-width:1.40999997;stroke-linecap:round;stroke-linejoin:round;stroke-miterlimit:4;stroke-dasharray:none"
           id="circle6108"
           cx="554.08875"
           cy="-523.40808"
           r="12.866117"
           transform="matrix(-0.70710678,0.70710678,-0.70710678,-0.70710678,0,0)" />
        <circle
           r="12.866117"
           cy="134.21342"
           cx="554.08875"
           id="circle6110"
           style="opacity:1;fill:#ffdf00;fill-opacity:1;stroke:#806600;stroke-width:1.40999997;stroke-linecap:round;stroke-linejoin:round;stroke-miterlimit:4;stroke-dasharray:none"
           transform="matrix(-0.70710678,0.70710678,-0.70710678,-0.70710678,0,0)" />
        <circle
           style="opacity:1;fill:#ffdf00;fill-opacity:1;stroke:#806600;stroke-width:1.40999997;stroke-linecap:round;stroke-linejoin:round;stroke-miterlimit:4;stroke-dasharray:none"
           id="circle6170"
           cx="32.256138"
           cy="-915.19116"
           r="12.866117"
           transform="matrix(-0.92387953,-0.38268343,0.38268343,-0.92387953,0,0)" />
        <circle
           r="12.866117"
           cy="-257.56967"
           cx="32.256138"
           id="circle6172"
           style="opacity:1;fill:#ffdf00;fill-opacity:1;stroke:#806600;stroke-width:1.40999997;stroke-linecap:round;stroke-linejoin:round;stroke-miterlimit:4;stroke-dasharray:none"
           transform="matrix(-0.92387953,-0.38268343,0.38268343,-0.92387953,0,0)" />
        <circle
           style="opacity:1;fill:#ffdf00;fill-opacity:1;stroke:#806600;stroke-width:1.40999997;stroke-linecap:round;stroke-linejoin:round;stroke-miterlimit:4;stroke-dasharray:none"
           id="circle6176"
           cx="391.82504"
           cy="108.63132"
           r="12.866117"
           transform="matrix(0.38268343,0.92387953,-0.92387953,0.38268343,0,0)" />
        <circle
           r="12.866117"
           cy="766.25281"
           cx="391.82504"
           id="circle6178"
           style="opacity:1;fill:#ffdf00;fill-opacity:1;stroke:#806600;stroke-width:1.40999997;stroke-linecap:round;stroke-linejoin:round;stroke-miterlimit:4;stroke-dasharray:none"
           transform="matrix(0.38268343,0.92387953,-0.92387953,0.38268343,0,0)" />
        <circle
           r="12.866117"
           cy="-720.63586"
           cx="437.44208"
           id="circle6182"
           style="opacity:1;fill:#ffdf00;fill-opacity:1;stroke:#806600;stroke-width:1.40999997;stroke-linecap:round;stroke-linejoin:round;stroke-miterlimit:4;stroke-dasharray:none"
           transform="matrix(-0.92387953,0.38268343,-0.38268343,-0.92387953,0,0)" />
        <circle
           style="opacity:1;fill:#ffdf00;fill-opacity:1;stroke:#806600;stroke-width:1.40999997;stroke-linecap:round;stroke-linejoin:round;stroke-miterlimit:4;stroke-dasharray:none"
           id="circle6184"
           cx="437.44208"
           cy="-63.014366"
           r="12.866117"
           transform="matrix(-0.92387953,0.38268343,-0.38268343,-0.92387953,0,0)" />
        <circle
           r="12.866117"
           cy="-296.55463"
           cx="586.38037"
           id="circle6188"
           style="opacity:1;fill:#ffdf00;fill-opacity:1;stroke:#806600;stroke-width:1.40999997;stroke-linecap:round;stroke-linejoin:round;stroke-miterlimit:4;stroke-dasharray:none"
           transform="matrix(-0.38268343,0.92387953,-0.92387953,-0.38268343,0,0)" />
        <circle
           style="opacity:1;fill:#ffdf00;fill-opacity:1;stroke:#806600;stroke-width:1.40999997;stroke-linecap:round;stroke-linejoin:round;stroke-miterlimit:4;stroke-dasharray:none"
           id="circle6190"
           cx="586.38037"
           cy="361.06683"
           r="12.866117"
           transform="matrix(-0.38268343,0.92387953,-0.92387953,-0.38268343,0,0)" />
      </g>
      <g
         id="g5955">
        <g
           id="g5787"
           transform="translate(-1679.783,-34.892668)">
          <g
             transform="matrix(0.70710678,-0.70710678,0.70710678,0.70710678,712.59562,2128.7538)"
             id="g5672">
            <g
               id="g5656"
               transform="translate(-73.892541,-0.11200992)">
              <rect
                 transform="matrix(0.94750445,-0.31974259,0.319104,0.9477197,0,0)"
                 ry="3.0068538"
                 rx="5.2393427"
                 y="1643.2529"
                 x="2395.7432"
                 height="6.0137076"
                 width="33.341274"
                 id="rect5654"
                 style="opacity:1;fill:#ffdf00;fill-opacity:1;stroke:#806600;stroke-width:1.40999997;stroke-linecap:round;stroke-linejoin:round;stroke-miterlimit:4;stroke-dasharray:none" />
              <rect
                 style="opacity:1;fill:#ffdf00;fill-opacity:1;stroke:#806600;stroke-width:1.40999997;stroke-linecap:round;stroke-linejoin:round;stroke-miterlimit:4;stroke-dasharray:none"
                 id="rect5617"
                 width="33.341274"
                 height="6.0137076"
                 x="2397.9607"
                 y="1636.6691"
                 rx="5.2393427"
                 ry="3.0068538"
                 transform="matrix(0.94750445,-0.31974259,0.319104,0.9477197,0,0)" />
              <rect
                 transform="matrix(0.94750445,-0.31974259,0.319104,0.9477197,0,0)"
                 ry="3.0068538"
                 rx="5.2393427"
                 y="1630.0851"
                 x="2400.1777"
                 height="6.0137076"
                 width="33.341274"
                 id="rect5615"
                 style="opacity:1;fill:#ffdf00;fill-opacity:1;stroke:#806600;stroke-width:1.40999997;stroke-linecap:round;stroke-linejoin:round;stroke-miterlimit:4;stroke-dasharray:none" />
              <rect
                 style="opacity:1;fill:#ffdf00;fill-opacity:1;stroke:#806600;stroke-width:1.40999997;stroke-linecap:round;stroke-linejoin:round;stroke-miterlimit:4;stroke-dasharray:none"
                 id="rect5613"
                 width="33.341274"
                 height="6.0137076"
                 x="2402.3953"
                 y="1623.5012"
                 rx="5.2393427"
                 ry="3.0068538"
                 transform="matrix(0.94750445,-0.31974259,0.319104,0.9477197,0,0)" />
              <rect
                 transform="matrix(0.94750445,-0.31974259,0.319104,0.9477197,0,0)"
                 ry="3.0068538"
                 rx="5.2393427"
                 y="1616.9172"
                 x="2404.6125"
                 height="6.0137076"
                 width="33.341274"
                 id="rect5611"
                 style="opacity:1;fill:#ffdf00;fill-opacity:1;stroke:#806600;stroke-width:1.40999997;stroke-linecap:round;stroke-linejoin:round;stroke-miterlimit:4;stroke-dasharray:none" />
              <rect
                 style="opacity:1;fill:#ffdf00;fill-opacity:1;stroke:#806600;stroke-width:1.40999997;stroke-linecap:round;stroke-linejoin:round;stroke-miterlimit:4;stroke-dasharray:none"
                 id="rect5609"
                 width="33.341274"
                 height="6.0137076"
                 x="2406.8298"
                 y="1610.3334"
                 rx="5.2393427"
                 ry="3.0068538"
                 transform="matrix(0.94750445,-0.31974259,0.319104,0.9477197,0,0)" />
              <rect
                 transform="matrix(0.94750445,-0.31974259,0.319104,0.9477197,0,0)"
                 ry="3.0068538"
                 rx="5.2393427"
                 y="1603.7495"
                 x="2409.0474"
                 height="6.0137076"
                 width="33.341274"
                 id="rect5595"
                 style="opacity:1;fill:#ffdf00;fill-opacity:1;stroke:#806600;stroke-width:1.40999997;stroke-linecap:round;stroke-linejoin:round;stroke-miterlimit:4;stroke-dasharray:none" />
              <rect
                 style="opacity:1;fill:#ffdf00;fill-opacity:1;stroke:#806600;stroke-width:1.40999997;stroke-linecap:round;stroke-linejoin:round;stroke-miterlimit:4;stroke-dasharray:none"
                 id="rect5597"
                 width="33.341274"
                 height="6.0137076"
                 x="2411.2644"
                 y="1597.1655"
                 rx="5.2393427"
                 ry="3.0068538"
                 transform="matrix(0.94750445,-0.31974259,0.319104,0.9477197,0,0)" />
              <rect
                 transform="matrix(0.94750445,-0.31974259,0.319104,0.9477197,0,0)"
                 ry="3.0068538"
                 rx="5.2393427"
                 y="1590.5817"
                 x="2413.4819"
                 height="6.0137076"
                 width="33.341274"
                 id="rect5599"
                 style="opacity:1;fill:#ffdf00;fill-opacity:1;stroke:#806600;stroke-width:1.40999997;stroke-linecap:round;stroke-linejoin:round;stroke-miterlimit:4;stroke-dasharray:none" />
              <rect
                 style="opacity:1;fill:#ffdf00;fill-opacity:1;stroke:#806600;stroke-width:1.40999997;stroke-linecap:round;stroke-linejoin:round;stroke-miterlimit:4;stroke-dasharray:none"
                 id="rect5601"
                 width="33.341274"
                 height="6.0137076"
                 x="2415.6995"
                 y="1583.9978"
                 rx="5.2393427"
                 ry="3.0068538"
                 transform="matrix(0.94750445,-0.31974259,0.319104,0.9477197,0,0)" />
              <rect
                 transform="matrix(0.94750445,-0.31974259,0.319104,0.9477197,0,0)"
                 ry="3.0068538"
                 rx="5.2393427"
                 y="1577.4138"
                 x="2417.9167"
                 height="6.0137076"
                 width="33.341274"
                 id="rect5603"
                 style="opacity:1;fill:#ffdf00;fill-opacity:1;stroke:#806600;stroke-width:1.40999997;stroke-linecap:round;stroke-linejoin:round;stroke-miterlimit:4;stroke-dasharray:none" />
              <rect
                 style="opacity:1;fill:#ffdf00;fill-opacity:1;stroke:#806600;stroke-width:1.40999997;stroke-linecap:round;stroke-linejoin:round;stroke-miterlimit:4;stroke-dasharray:none"
                 id="rect5605"
                 width="33.341274"
                 height="6.0137076"
                 x="2420.134"
                 y="1570.83"
                 rx="5.2393427"
                 ry="3.0068538"
                 transform="matrix(0.94750445,-0.31974259,0.319104,0.9477197,0,0)" />
              <rect
                 transform="matrix(0.94750445,-0.31974259,0.319104,0.9477197,0,0)"
                 ry="3.0068538"
                 rx="5.2393427"
                 y="1564.2461"
                 x="2422.3516"
                 height="6.0137076"
                 width="33.341274"
                 id="rect5607"
                 style="opacity:1;fill:#ffdf00;fill-opacity:1;stroke:#806600;stroke-width:1.40999997;stroke-linecap:round;stroke-linejoin:round;stroke-miterlimit:4;stroke-dasharray:none" />
              <rect
                 style="opacity:1;fill:#ffdf00;fill-opacity:1;stroke:#806600;stroke-width:1.40999997;stroke-linecap:round;stroke-linejoin:round;stroke-miterlimit:4;stroke-dasharray:none"
                 id="rect5652"
                 width="33.341274"
                 height="6.0137076"
                 x="2424.5688"
                 y="1557.6621"
                 rx="5.2393427"
                 ry="3.0068538"
                 transform="matrix(0.94750445,-0.31974259,0.319104,0.9477197,0,0)" />
            </g>
            <path
               sodipodi:nodetypes="ccccc"
               style="clip-rule:evenodd;opacity:1;fill:#ffdf00;fill-opacity:1;fill-rule:evenodd;stroke:#806600;stroke-width:1.40999985;stroke-linecap:round;stroke-linejoin:round;stroke-miterlimit:4;stroke-dasharray:none;stroke-dashoffset:0;stroke-opacity:1;image-rendering:optimizeQuality;shape-rendering:geometricPrecision;text-rendering:geometricPrecision"
               d="m 2750.8555,799.46003 c -1.194,8.45142 -6.9403,14.59879 -13.6493,14.60192 -6.7061,-0.005 -12.4495,-6.14972 -13.6448,-14.59712 4.1195,1.86933 8.8335,2.86091 13.6404,2.86927 4.812,-0.008 9.5309,-1.00131 13.6537,-2.87407 z"
               id="path5469"
               inkscape:connector-curvature="0" />
            <g
               id="g5471"
               transform="matrix(-0.08705648,0,0,0.08705648,3123.6182,280.02993)"
               style="clip-rule:evenodd;opacity:1;fill-rule:evenodd;image-rendering:optimizeQuality;shape-rendering:geometricPrecision;text-rendering:geometricPrecision">
              <path
                 sodipodi:nodetypes="cccccc"
                 inkscape:connector-curvature="0"
                 id="path5473"
                 d="m 4199.3449,23.082459 c 0,-162.457459 239.2663,-494.290929 239.2663,-494.290929 0,0 239.2664,331.83347 239.2664,494.290929 l 0,4786.427541 -478.5327,0 z"
                 style="opacity:1;fill:#ffdf00;fill-opacity:1;stroke:#806600;stroke-width:16.19638252;stroke-linecap:round;stroke-linejoin:round;stroke-miterlimit:4;stroke-dasharray:none;stroke-dashoffset:0;stroke-opacity:1" />
              <path
                 sodipodi:nodetypes="cc"
                 inkscape:connector-curvature="0"
                 id="path5475"
                 d="m 4438.6111,-471.20847 0,5261.42787"
                 style="color:#000000;clip-rule:nonzero;display:inline;overflow:visible;visibility:visible;opacity:1;isolation:auto;mix-blend-mode:normal;color-interpolation:sRGB;color-interpolation-filters:linearRGB;solid-color:#000000;solid-opacity:1;fill:none;fill-opacity:1;fill-rule:nonzero;stroke:#806600;stroke-width:16.19638252;stroke-linecap:round;stroke-linejoin:round;stroke-miterlimit:4;stroke-dasharray:none;stroke-dashoffset:0;stroke-opacity:1;color-rendering:auto;image-rendering:auto;shape-rendering:auto;text-rendering:auto;enable-background:accumulate" />
            </g>
            <path
               sodipodi:nodetypes="ccccccc"
               inkscape:connector-curvature="0"
               style="clip-rule:evenodd;opacity:1;fill:#ffdf00;fill-opacity:1;fill-rule:evenodd;stroke:#806600;stroke-width:1.40999985;stroke-linecap:round;stroke-linejoin:round;stroke-miterlimit:4;stroke-dasharray:none;stroke-dashoffset:0;stroke-opacity:1;image-rendering:optimizeQuality;shape-rendering:geometricPrecision;text-rendering:geometricPrecision"
               d="m 2764.3986,782.26326 c 0.065,0.50328 0.102,1.00819 0.1097,1.5135 0,10.50824 -12.2239,19.02667 -27.3023,19.02609 -15.0765,-0.001 -27.2976,-8.5191 -27.2977,-19.02609 0,-0.50519 0.035,-1.01009 0.096,-1.5135 l 54.3942,0 z"
               id="path5481" />
            <path
               style="color:#000000;font-style:normal;font-variant:normal;font-weight:normal;font-stretch:normal;font-size:medium;line-height:normal;font-family:sans-serif;text-indent:0;text-align:start;text-decoration:none;text-decoration-line:none;text-decoration-style:solid;text-decoration-color:#000000;letter-spacing:normal;word-spacing:normal;text-transform:none;direction:ltr;block-progression:tb;writing-mode:lr-tb;baseline-shift:baseline;text-anchor:start;white-space:normal;clip-rule:nonzero;display:inline;overflow:visible;visibility:visible;opacity:1;isolation:auto;mix-blend-mode:normal;color-interpolation:sRGB;color-interpolation-filters:linearRGB;solid-color:#000000;solid-opacity:1;fill:#ffdf00;fill-opacity:1;fill-rule:nonzero;stroke:#806600;stroke-width:1.40999985;stroke-linecap:round;stroke-linejoin:round;stroke-miterlimit:4;stroke-dasharray:none;stroke-dashoffset:0;stroke-opacity:1;color-rendering:auto;image-rendering:auto;shape-rendering:auto;text-rendering:auto;enable-background:accumulate"
               d="m 2699.5103,684.41556 c 0.054,0 0.1071,0.014 0.1538,0.041 0,0 17.7085,10.18204 37.546,10.29478 19.8331,0.1127 37.5399,-10.29341 37.5399,-10.29341 0.1742,-0.10241 0.3982,-0.0115 0.4518,0.18329 l 5.4448,19.78376 c 0.046,0.1011 0.034,0.2191 -0.032,0.3086 0,0.007 -0.01,0.0132 -0.015,0.0194 -0.07,0.0831 -0.1779,0.12323 -0.2849,0.10578 l -86.2129,0 c -0.1093,0.0176 -0.2196,-0.0249 -0.2887,-0.11137 -0.01,-0.007 -0.011,-0.014 -0.016,-0.0214 -0.062,-0.0894 -0.071,-0.2045 -0.026,-0.303 l 5.4439,-19.7819 c 0.037,-0.13305 0.1576,-0.22534 0.2956,-0.22562 z"
               id="path5483"
               inkscape:connector-curvature="0"
               sodipodi:nodetypes="ccsccccccccccccc" />
          </g>
          <g
             id="g5743"
             transform="matrix(-0.70710678,-0.70710678,-0.70710678,0.70710678,5331.5916,2128.7538)">
            <g
               transform="translate(-73.892541,-0.11200992)"
               id="g5745">
              <rect
                 style="opacity:1;fill:#ffdf00;fill-opacity:1;stroke:#806600;stroke-width:1.40999997;stroke-linecap:round;stroke-linejoin:round;stroke-miterlimit:4;stroke-dasharray:none"
                 id="rect5747"
                 width="33.341274"
                 height="6.0137076"
                 x="2395.7432"
                 y="1643.2529"
                 rx="5.2393427"
                 ry="3.0068538"
                 transform="matrix(0.94750445,-0.31974259,0.319104,0.9477197,0,0)" />
              <rect
                 transform="matrix(0.94750445,-0.31974259,0.319104,0.9477197,0,0)"
                 ry="3.0068538"
                 rx="5.2393427"
                 y="1636.6691"
                 x="2397.9607"
                 height="6.0137076"
                 width="33.341274"
                 id="rect5749"
                 style="opacity:1;fill:#ffdf00;fill-opacity:1;stroke:#806600;stroke-width:1.40999997;stroke-linecap:round;stroke-linejoin:round;stroke-miterlimit:4;stroke-dasharray:none" />
              <rect
                 style="opacity:1;fill:#ffdf00;fill-opacity:1;stroke:#806600;stroke-width:1.40999997;stroke-linecap:round;stroke-linejoin:round;stroke-miterlimit:4;stroke-dasharray:none"
                 id="rect5751"
                 width="33.341274"
                 height="6.0137076"
                 x="2400.1777"
                 y="1630.0851"
                 rx="5.2393427"
                 ry="3.0068538"
                 transform="matrix(0.94750445,-0.31974259,0.319104,0.9477197,0,0)" />
              <rect
                 transform="matrix(0.94750445,-0.31974259,0.319104,0.9477197,0,0)"
                 ry="3.0068538"
                 rx="5.2393427"
                 y="1623.5012"
                 x="2402.3953"
                 height="6.0137076"
                 width="33.341274"
                 id="rect5753"
                 style="opacity:1;fill:#ffdf00;fill-opacity:1;stroke:#806600;stroke-width:1.40999997;stroke-linecap:round;stroke-linejoin:round;stroke-miterlimit:4;stroke-dasharray:none" />
              <rect
                 style="opacity:1;fill:#ffdf00;fill-opacity:1;stroke:#806600;stroke-width:1.40999997;stroke-linecap:round;stroke-linejoin:round;stroke-miterlimit:4;stroke-dasharray:none"
                 id="rect5755"
                 width="33.341274"
                 height="6.0137076"
                 x="2404.6125"
                 y="1616.9172"
                 rx="5.2393427"
                 ry="3.0068538"
                 transform="matrix(0.94750445,-0.31974259,0.319104,0.9477197,0,0)" />
              <rect
                 transform="matrix(0.94750445,-0.31974259,0.319104,0.9477197,0,0)"
                 ry="3.0068538"
                 rx="5.2393427"
                 y="1610.3334"
                 x="2406.8298"
                 height="6.0137076"
                 width="33.341274"
                 id="rect5757"
                 style="opacity:1;fill:#ffdf00;fill-opacity:1;stroke:#806600;stroke-width:1.40999997;stroke-linecap:round;stroke-linejoin:round;stroke-miterlimit:4;stroke-dasharray:none" />
              <rect
                 style="opacity:1;fill:#ffdf00;fill-opacity:1;stroke:#806600;stroke-width:1.40999997;stroke-linecap:round;stroke-linejoin:round;stroke-miterlimit:4;stroke-dasharray:none"
                 id="rect5759"
                 width="33.341274"
                 height="6.0137076"
                 x="2409.0474"
                 y="1603.7495"
                 rx="5.2393427"
                 ry="3.0068538"
                 transform="matrix(0.94750445,-0.31974259,0.319104,0.9477197,0,0)" />
              <rect
                 transform="matrix(0.94750445,-0.31974259,0.319104,0.9477197,0,0)"
                 ry="3.0068538"
                 rx="5.2393427"
                 y="1597.1655"
                 x="2411.2644"
                 height="6.0137076"
                 width="33.341274"
                 id="rect5761"
                 style="opacity:1;fill:#ffdf00;fill-opacity:1;stroke:#806600;stroke-width:1.40999997;stroke-linecap:round;stroke-linejoin:round;stroke-miterlimit:4;stroke-dasharray:none" />
              <rect
                 style="opacity:1;fill:#ffdf00;fill-opacity:1;stroke:#806600;stroke-width:1.40999997;stroke-linecap:round;stroke-linejoin:round;stroke-miterlimit:4;stroke-dasharray:none"
                 id="rect5763"
                 width="33.341274"
                 height="6.0137076"
                 x="2413.4819"
                 y="1590.5817"
                 rx="5.2393427"
                 ry="3.0068538"
                 transform="matrix(0.94750445,-0.31974259,0.319104,0.9477197,0,0)" />
              <rect
                 transform="matrix(0.94750445,-0.31974259,0.319104,0.9477197,0,0)"
                 ry="3.0068538"
                 rx="5.2393427"
                 y="1583.9978"
                 x="2415.6995"
                 height="6.0137076"
                 width="33.341274"
                 id="rect5765"
                 style="opacity:1;fill:#ffdf00;fill-opacity:1;stroke:#806600;stroke-width:1.40999997;stroke-linecap:round;stroke-linejoin:round;stroke-miterlimit:4;stroke-dasharray:none" />
              <rect
                 style="opacity:1;fill:#ffdf00;fill-opacity:1;stroke:#806600;stroke-width:1.40999997;stroke-linecap:round;stroke-linejoin:round;stroke-miterlimit:4;stroke-dasharray:none"
                 id="rect5767"
                 width="33.341274"
                 height="6.0137076"
                 x="2417.9167"
                 y="1577.4138"
                 rx="5.2393427"
                 ry="3.0068538"
                 transform="matrix(0.94750445,-0.31974259,0.319104,0.9477197,0,0)" />
              <rect
                 transform="matrix(0.94750445,-0.31974259,0.319104,0.9477197,0,0)"
                 ry="3.0068538"
                 rx="5.2393427"
                 y="1570.83"
                 x="2420.134"
                 height="6.0137076"
                 width="33.341274"
                 id="rect5769"
                 style="opacity:1;fill:#ffdf00;fill-opacity:1;stroke:#806600;stroke-width:1.40999997;stroke-linecap:round;stroke-linejoin:round;stroke-miterlimit:4;stroke-dasharray:none" />
              <rect
                 style="opacity:1;fill:#ffdf00;fill-opacity:1;stroke:#806600;stroke-width:1.40999997;stroke-linecap:round;stroke-linejoin:round;stroke-miterlimit:4;stroke-dasharray:none"
                 id="rect5771"
                 width="33.341274"
                 height="6.0137076"
                 x="2422.3516"
                 y="1564.2461"
                 rx="5.2393427"
                 ry="3.0068538"
                 transform="matrix(0.94750445,-0.31974259,0.319104,0.9477197,0,0)" />
              <rect
                 transform="matrix(0.94750445,-0.31974259,0.319104,0.9477197,0,0)"
                 ry="3.0068538"
                 rx="5.2393427"
                 y="1557.6621"
                 x="2424.5688"
                 height="6.0137076"
                 width="33.341274"
                 id="rect5773"
                 style="opacity:1;fill:#ffdf00;fill-opacity:1;stroke:#806600;stroke-width:1.40999997;stroke-linecap:round;stroke-linejoin:round;stroke-miterlimit:4;stroke-dasharray:none" />
            </g>
            <path
               inkscape:connector-curvature="0"
               id="path5775"
               d="m 2750.8555,799.46003 c -1.194,8.45142 -6.9403,14.59879 -13.6493,14.60192 -6.7061,-0.005 -12.4495,-6.14972 -13.6448,-14.59712 4.1195,1.86933 8.8335,2.86091 13.6404,2.86927 4.812,-0.008 9.5309,-1.00131 13.6537,-2.87407 z"
               style="clip-rule:evenodd;opacity:1;fill:#ffdf00;fill-opacity:1;fill-rule:evenodd;stroke:#806600;stroke-width:1.40999985;stroke-linecap:round;stroke-linejoin:round;stroke-miterlimit:4;stroke-dasharray:none;stroke-dashoffset:0;stroke-opacity:1;image-rendering:optimizeQuality;shape-rendering:geometricPrecision;text-rendering:geometricPrecision"
               sodipodi:nodetypes="ccccc" />
            <g
               style="clip-rule:evenodd;opacity:1;fill-rule:evenodd;image-rendering:optimizeQuality;shape-rendering:geometricPrecision;text-rendering:geometricPrecision"
               transform="matrix(-0.08705648,0,0,0.08705648,3123.6182,280.02993)"
               id="g5777">
              <path
                 style="opacity:1;fill:#ffdf00;fill-opacity:1;stroke:#806600;stroke-width:16.19638252;stroke-linecap:round;stroke-linejoin:round;stroke-miterlimit:4;stroke-dasharray:none;stroke-dashoffset:0;stroke-opacity:1"
                 d="m 4199.3449,23.082459 c 0,-162.457459 239.2663,-494.290929 239.2663,-494.290929 0,0 239.2664,331.83347 239.2664,494.290929 l 0,4786.427541 -478.5327,0 z"
                 id="path5779"
                 inkscape:connector-curvature="0"
                 sodipodi:nodetypes="cccccc" />
              <path
                 style="color:#000000;clip-rule:nonzero;display:inline;overflow:visible;visibility:visible;opacity:1;isolation:auto;mix-blend-mode:normal;color-interpolation:sRGB;color-interpolation-filters:linearRGB;solid-color:#000000;solid-opacity:1;fill:none;fill-opacity:1;fill-rule:nonzero;stroke:#806600;stroke-width:16.19638252;stroke-linecap:round;stroke-linejoin:round;stroke-miterlimit:4;stroke-dasharray:none;stroke-dashoffset:0;stroke-opacity:1;color-rendering:auto;image-rendering:auto;shape-rendering:auto;text-rendering:auto;enable-background:accumulate"
                 d="m 4438.6111,-471.20847 0,5261.42787"
                 id="path5781"
                 inkscape:connector-curvature="0"
                 sodipodi:nodetypes="cc" />
            </g>
            <path
               id="path5783"
               d="m 2764.3986,782.26326 c 0.065,0.50328 0.102,1.00819 0.1097,1.5135 0,10.50824 -12.2239,19.02667 -27.3023,19.02609 -15.0765,-0.001 -27.2976,-8.5191 -27.2977,-19.02609 0,-0.50519 0.035,-1.01009 0.096,-1.5135 l 54.3942,0 z"
               style="clip-rule:evenodd;opacity:1;fill:#ffdf00;fill-opacity:1;fill-rule:evenodd;stroke:#806600;stroke-width:1.40999985;stroke-linecap:round;stroke-linejoin:round;stroke-miterlimit:4;stroke-dasharray:none;stroke-dashoffset:0;stroke-opacity:1;image-rendering:optimizeQuality;shape-rendering:geometricPrecision;text-rendering:geometricPrecision"
               inkscape:connector-curvature="0"
               sodipodi:nodetypes="ccccccc" />
            <path
               sodipodi:nodetypes="ccsccccccccccccc"
               inkscape:connector-curvature="0"
               id="path5785"
               d="m 2699.5103,684.41556 c 0.054,0 0.1071,0.014 0.1538,0.041 0,0 17.7085,10.18204 37.546,10.29478 19.8331,0.1127 37.5399,-10.29341 37.5399,-10.29341 0.1742,-0.10241 0.3982,-0.0115 0.4518,0.18329 l 5.4448,19.78376 c 0.046,0.1011 0.034,0.2191 -0.032,0.3086 0,0.007 -0.01,0.0132 -0.015,0.0194 -0.07,0.0831 -0.1779,0.12323 -0.2849,0.10578 l -86.2129,0 c -0.1093,0.0176 -0.2196,-0.0249 -0.2887,-0.11137 -0.01,-0.007 -0.011,-0.014 -0.016,-0.0214 -0.062,-0.0894 -0.071,-0.2045 -0.026,-0.303 l 5.4439,-19.7819 c 0.037,-0.13305 0.1576,-0.22534 0.2956,-0.22562 z"
               style="color:#000000;font-style:normal;font-variant:normal;font-weight:normal;font-stretch:normal;font-size:medium;line-height:normal;font-family:sans-serif;text-indent:0;text-align:start;text-decoration:none;text-decoration-line:none;text-decoration-style:solid;text-decoration-color:#000000;letter-spacing:normal;word-spacing:normal;text-transform:none;direction:ltr;block-progression:tb;writing-mode:lr-tb;baseline-shift:baseline;text-anchor:start;white-space:normal;clip-rule:nonzero;display:inline;overflow:visible;visibility:visible;opacity:1;isolation:auto;mix-blend-mode:normal;color-interpolation:sRGB;color-interpolation-filters:linearRGB;solid-color:#000000;solid-opacity:1;fill:#ffdf00;fill-opacity:1;fill-rule:nonzero;stroke:#806600;stroke-width:1.40999985;stroke-linecap:round;stroke-linejoin:round;stroke-miterlimit:4;stroke-dasharray:none;stroke-dashoffset:0;stroke-opacity:1;color-rendering:auto;image-rendering:auto;shape-rendering:auto;text-rendering:auto;enable-background:accumulate" />
          </g>
        </g>
        <path
           style="color:#000000;font-style:normal;font-variant:normal;font-weight:normal;font-stretch:normal;font-size:medium;line-height:normal;font-family:sans-serif;text-indent:0;text-align:start;text-decoration:none;text-decoration-line:none;text-decoration-style:solid;text-decoration-color:#000000;letter-spacing:normal;word-spacing:normal;text-transform:none;direction:ltr;block-progression:tb;writing-mode:lr-tb;baseline-shift:baseline;text-anchor:start;white-space:normal;clip-rule:nonzero;display:inline;overflow:visible;visibility:visible;opacity:1;isolation:auto;mix-blend-mode:normal;color-interpolation:sRGB;color-interpolation-filters:linearRGB;solid-color:#000000;solid-opacity:1;fill:#ffdf00;fill-opacity:1;fill-rule:nonzero;stroke:#806600;stroke-width:1.4109503;stroke-linecap:butt;stroke-linejoin:miter;stroke-miterlimit:4;stroke-dasharray:none;stroke-dashoffset:0;stroke-opacity:1;color-rendering:auto;image-rendering:auto;shape-rendering:auto;text-rendering:auto;enable-background:accumulate"
           d="m 1255.0081,283.06768 52.8583,214.85025 -214.8503,-52.85827 0,174.6051 214.853,-52.86103 -52.861,214.85301 174.6051,0 -52.8638,-214.85577 214.8558,52.86379 0,-174.6051 -214.8531,52.86103 52.8611,-214.85301 z"
           id="path4504"
           inkscape:connector-curvature="0"
           sodipodi:nodetypes="ccccccccccccc" />
        <path
           style="opacity:1;fill:#d50663;stroke:#806600;stroke-width:1.4109503"
           d="m 1320.8772,510.9288 -53.7178,-218.33704 150.3026,0 -53.7179,218.33704 218.337,-53.7179 0,150.30261 -218.337,-53.7178 53.7179,218.33694 -150.3026,-4e-5 53.7178,-218.3369 -218.337,53.7178 0,-150.30261 z"
           id="rect3687"
           inkscape:connector-curvature="0"
           sodipodi:nodetypes="ccccccccccccc" />
        <path
           inkscape:connector-curvature="0"
           id="path5179"
           d="m 1396.0804,532.3622 -53.7697,235.9107 -53.7698,-235.9107 53.7698,-235.9106 z"
           style="fill:#ffdf00;fill-rule:evenodd;stroke:#806600;stroke-width:1.40999997;stroke-linecap:round;stroke-linejoin:round;stroke-miterlimit:4;stroke-dasharray:none;stroke-opacity:1" />
        <g
           id="g5327"
           transform="translate(97.61268,0.0102838)">
          <path
             sodipodi:nodetypes="ccccc"
             inkscape:connector-curvature="0"
             id="path5312"
             d="m 1261.4673,348.90233 c 1.477,-4.77336 2.5155,-10.62044 2.7695,-18.77148 0.6267,-23.46254 -16.5913,-23.96598 -19.5352,-33.68946 -2.9445,9.72348 -20.165,10.22692 -19.539,33.68946 0.254,8.15037 1.2925,13.99834 2.7695,18.77148"
             style="fill:#ffdf00;fill-rule:evenodd;stroke:#806600;stroke-width:1.40999997;stroke-linecap:round;stroke-linejoin:round;stroke-miterlimit:4;stroke-dasharray:none" />
          <path
             d="m 1244.6998,403.43631 c 0.6161,-29.75799 5.91,-51.82532 14.0099,-63.44088 10.415,-14.93386 23.6711,-10.22337 23.1817,6.67154 -1.2754,16.53108 -22.8575,13.75244 -13.2374,29.02507 -6.0688,-5.22791 -9.4799,-11.35515 -6.0425,-21.10497 0.6599,-1.87111 1.3928,-4.61121 -1.2615,-2.03346 -10.8395,10.52763 -14.7902,38.95879 -16.652,50.88275 z"
             id="_300006688"
             style="fill:#ffdf00;fill-rule:evenodd;stroke:#806600;stroke-width:1.40999997;stroke-linecap:round;stroke-linejoin:round;stroke-miterlimit:4;stroke-dasharray:none"
             inkscape:connector-curvature="0"
             sodipodi:nodetypes="cccccccc" />
          <path
             d="m 1244.6998,403.43631 c -0.6155,-29.75799 -5.9136,-51.82532 -14.0141,-63.44088 -10.4143,-14.93386 -23.671,-10.22337 -23.1811,6.67154 1.2755,16.53108 22.857,13.75244 13.2368,29.02507 6.0689,-5.22791 9.48,-11.35515 6.0426,-21.10497 -0.6593,-1.87111 -1.3928,-4.61121 1.2614,-2.03346 10.8395,10.52763 14.7933,38.95879 16.6544,50.88275 z"
             id="_300006976"
             style="fill:#ffdf00;fill-rule:evenodd;stroke:#806600;stroke-width:1.40999997;stroke-linecap:round;stroke-linejoin:round;stroke-miterlimit:4;stroke-dasharray:none"
             inkscape:connector-curvature="0"
             sodipodi:nodetypes="cccccccc" />
        </g>
        <path
           inkscape:connector-curvature="0"
           id="path5181"
           d="m 1342.3107,296.4516 0,471.8213"
           style="fill:none;fill-rule:evenodd;stroke:#806600;stroke-width:1.40999997;stroke-linecap:round;stroke-linejoin:round;stroke-miterlimit:4;stroke-dasharray:none;stroke-opacity:1" />
        <g
           id="g5173"
           transform="translate(-227.21912,-2e-5)">
          <path
             inkscape:connector-curvature="0"
             id="path5169"
             d="m 1569.5297,478.5925 235.9107,53.76973 -235.9107,53.76973 -235.9106,-53.76973 z"
             style="fill:#ffdf00;fill-rule:evenodd;stroke:#806600;stroke-width:1.40999997;stroke-linecap:round;stroke-linejoin:round;stroke-miterlimit:4;stroke-dasharray:none;stroke-opacity:1" />
          <path
             inkscape:connector-curvature="0"
             id="path5171"
             d="m 1333.6191,532.36223 471.8213,0"
             style="fill:none;fill-rule:evenodd;stroke:#806600;stroke-width:1.40999997;stroke-linecap:round;stroke-linejoin:round;stroke-miterlimit:4;stroke-dasharray:none;stroke-opacity:1" />
        </g>
        <path
           style="opacity:1;fill:#ffdf00;stroke:#806600;stroke-width:1.4109503;stroke-miterlimit:4;stroke-dasharray:none"
           d="m 1441.959,532.36221 a 99.648365,99.648365 0 0 1 -99.6484,99.64836 99.648365,99.648365 0 0 1 -99.6483,-99.64836 99.648365,99.648365 0 0 1 99.6483,-99.64837 99.648365,99.648365 0 0 1 99.6484,99.64837 z"
           id="path4508"
           inkscape:connector-curvature="0" />
        <path
           id="path4511"
           d="m 1431.6779,532.36221 a 89.367303,89.367303 0 0 1 -89.3673,89.36728 89.367303,89.367303 0 0 1 -89.3672,-89.36728 89.367303,89.367303 0 0 1 89.3672,-89.36728 89.367303,89.367303 0 0 1 89.3673,89.36728 z"
           style="opacity:1;fill:#001788;stroke:#806600;stroke-width:1.4109503;stroke-miterlimit:4;stroke-dasharray:none"
           inkscape:connector-curvature="0" />
        <path
           style="display:inline;opacity:1;fill:#ffdf00;fill-opacity:1"
           id="path7306-8"
           d="m 1342.3106,457.25267 c -3.5002,3.97206 -5.6332,9.17134 -5.6332,14.87817 0.2074,12.53045 1.7443,25.03531 1.8777,37.56205 0.2779,11.67467 -3.2238,22.63984 -7.4816,33.33629 -1.4187,2.95595 -2.9534,5.84912 -4.4889,8.74501 l -4.5183,-0.90971 c -4.0657,-0.81303 -6.7101,-4.76666 -5.8973,-8.83283 0.7112,-3.55819 3.8423,-6.02889 7.3349,-6.0452 l 1.643,0.17605 -3.6675,-30.63661 c -1.1986,-13.64267 -8.2358,-25.60937 -18.6013,-33.39505 -1.7813,-1.33789 -3.6686,-2.5611 -5.6332,-3.63884 l 0,108.81262 25.1147,0 c 1.8779,10.19604 7.4883,19.07864 15.374,25.17852 1.8757,1.29299 3.447,2.99842 4.577,4.98861 1.1301,-1.99019 2.7012,-3.69562 4.577,-4.98861 7.8858,-6.09988 13.4962,-14.98248 15.374,-25.17852 l 25.1148,0 0,-108.81262 c -1.9646,1.07774 -3.852,2.30095 -5.6333,3.63884 -10.3655,7.78568 -17.4026,19.75238 -18.6013,33.39505 l -3.6675,30.63661 1.643,-0.17605 c 3.4926,0.0172 6.6237,2.48701 7.335,6.0452 0.8128,4.06617 -1.8317,8.0198 -5.8973,8.83283 l -4.5183,0.90971 c -1.5356,-2.89589 -3.0703,-5.78906 -4.489,-8.74501 -4.2577,-10.69645 -7.7595,-21.66162 -7.4816,-33.33629 0.1336,-12.52674 1.6703,-25.0316 1.8778,-37.56205 0,-5.70683 -2.133,-10.90611 -5.6333,-14.87817 z m -37.5547,26.9098 c 4.8606,5.70568 8.1226,12.81563 9.0953,20.62977 l 3.0219,25.26642 c -3.848,1.9161 -6.7652,5.43124 -7.863,9.6839 l -4.2542,0 0,-55.58009 z m 75.1094,0 0,55.58009 -4.2541,0 c -1.0979,-4.25266 -4.0151,-7.7678 -7.8631,-9.6839 l 3.022,-25.26642 c 0.9726,-7.81414 4.2347,-14.92409 9.0952,-20.62977 z m -37.5547,50.7967 c 2.0176,6.60039 4.7934,12.86783 8.2445,18.69308 -3.2825,0.99739 -6.1393,2.93737 -8.2445,5.54623 -2.1051,-2.60886 -4.962,-4.5487 -8.2444,-5.54623 3.4511,-5.82525 6.2268,-12.09269 8.2444,-18.69308 z m -37.5547,12.29593 4.2542,0 c 1.3414,5.18439 5.3882,9.28089 10.5329,10.71089 l 3.6088,0.82175 c -0.9663,3.50356 -1.4963,7.19518 -1.4963,11.0045 l -16.8996,0 0,-22.53714 z m 70.8553,0 4.2541,0 0,22.53714 -16.8996,0 c 0,-3.80932 -0.53,-7.50094 -1.4963,-11.0045 l 3.6088,-0.82175 c 5.1447,-1.43 9.1916,-5.5265 10.533,-10.71089 z m -45.1245,13.26398 c 4.5564,0.64412 8.0684,4.53911 8.0684,9.27316 l -9.3886,0 c 0,-3.22024 0.4768,-6.32366 1.3202,-9.27316 z m 23.6479,0 c 0.8432,2.9495 1.3202,6.05292 1.3202,9.27316 l -9.3887,0 c 0,-4.73405 3.512,-8.62904 8.0685,-9.27316 z m -24.1174,16.78554 8.5379,0 0,15.8172 c -4.1435,-4.33261 -7.1533,-9.77271 -8.5379,-15.8172 z m 16.0489,0 8.5378,0 c -1.3844,6.04449 -4.3943,11.48459 -8.5378,15.8172 l 0,-15.8172 z"
           inkscape:connector-curvature="0" />
      </g>
    </g>
    <g
       style="opacity:1"
       clip-path="url(#clipPath4771-7)"
       id="g5479"
       transform="matrix(1.087146,4.9497475e-8,4.9497475e-8,1.087146,1871.4061,-16.970579)" />
  </g>
</svg>
